<?xml version="1.0" encoding="UTF-8" standalone="no"?>
<!-- Created with Inkscape (http://www.inkscape.org/) -->

<svg
   version="1.1"
   id="svg2"
   width="360mm"
   height="360mm"
   viewBox="0 0 1440 1440"
   sodipodi:docname="catjazz.svg"
   inkscape:version="1.2.2 (b0a8486541, 2022-12-01)"
   xmlns:inkscape="http://www.inkscape.org/namespaces/inkscape"
   xmlns:sodipodi="http://sodipodi.sourceforge.net/DTD/sodipodi-0.dtd"
   xmlns="http://www.w3.org/2000/svg"
   xmlns:svg="http://www.w3.org/2000/svg"
   xmlns:rdf="http://www.w3.org/1999/02/22-rdf-syntax-ns#"
   xmlns:cc="http://creativecommons.org/ns#"
   xmlns:dc="http://purl.org/dc/elements/1.1/">
  <title
     id="title5782">rainy day, a cat, a cafe</title>
  <defs
     id="defs6" />
  <sodipodi:namedview
     id="namedview4"
     pagecolor="#ffffff"
     bordercolor="#000000"
     borderopacity="0.25"
     inkscape:showpageshadow="2"
     inkscape:pageopacity="0.0"
     inkscape:pagecheckerboard="0"
     inkscape:deskcolor="#d1d1d1"
     showgrid="false"
     inkscape:zoom="0.7316895"
     inkscape:cx="569.91388"
     inkscape:cy="617.74838"
     inkscape:window-width="2560"
     inkscape:window-height="1440"
     inkscape:window-x="1920"
     inkscape:window-y="0"
     inkscape:window-maximized="1"
     inkscape:current-layer="g8"
     inkscape:document-units="mm" />
  <g
     inkscape:groupmode="layer"
     inkscape:label="Image"
     id="g8">
    <g
       id="g10508"
       transform="matrix(1.0583604,0,0,1.0583604,0,6.2251073e-6)">
      <path
         style="fill:#f3f4f5;stroke-width:1.33333"
         d="M 0,682.66665 V 0 H 682.66665 1365.3333 V 682.66665 1365.3333 H 682.66665 0 Z"
         id="path269" />
      <path
         style="fill:#b3c3b3;fill-opacity:1;stroke-width:1.33333"
         d="M 0,682.66665 V 0 H 682.66665 1365.3333 V 682.66665 1365.3333 H 682.66665 0 Z m 671.75526,423.06745 -3.08861,-10.4008 0.0424,-27.3333 0.0424,-27.3334 3.76457,-18 3.76458,-18 4.61744,-15.91666 4.61744,-15.91672 7.16116,-20.08328 7.16114,-20.0833 4.12816,-9.96414 4.12816,-9.96415 2.52298,-2.70252 2.52296,-2.70252 7.57317,-16 7.57317,-16 2.57235,-6.50668 2.57236,-6.50669 -0.72945,-0.72944 -0.72944,-0.72945 -4.1288,3.9028 -4.1288,3.9028 -7.67604,9.34004 -7.67606,9.34004 -4.69736,9.32662 -4.69737,9.32663 -8.93736,15.28236 -8.93736,15.28236 -7.79012,11.3843 -7.79011,11.38431 -2.66604,6.23304 -2.66602,6.23304 -3.3097,13.76696 -3.3097,13.76696 -1.63167,11.21159 -1.63167,11.2116 0.72244,20.1217 0.72243,20.1218 2.22976,10.5621 2.22975,10.562 4.43894,12.4197 4.43895,12.4196 4.39432,5.5483 4.39431,5.5482 0.48749,-1.4624 0.48749,-1.4625 -3.08861,-10.4009 z m -229.07816,-21.751 1.21193,-1.961 -0.54299,-2.6777 -0.54298,-2.6778 -0.83994,-8.9901 -0.83994,-8.9902 2.10508,-2.1051 2.10506,-2.105 0.20736,-3.5715 0.20738,-3.5714 -0.26106,-3.3333 -0.26105,-3.3334 -2.76069,-2.3333 -2.7607,-2.3333 h -2.88894 -2.88895 l -2.77107,1.9409 -2.77106,1.9409 -2.27162,8.096 -2.27162,8.096 -1.14226,14.2712 -1.14225,14.2712 0.42773,0.6919 0.42775,0.6919 9.52645,-0.028 9.52644,-0.028 1.21194,-1.961 z m 756.0651,-50.0515 2.5352,-2.2943 2.6946,-7.202 2.6946,-7.202 v -8.4994 -8.4993 l -1.8801,-9.784 -1.88,-9.78396 -4.8823,-16.66666 -4.8822,-16.66667 -1.0275,-1.05651 -1.0275,-1.0565 -1.3805,1.72317 -1.3804,1.72317 -4.9397,11.3147 -4.9397,11.31468 -3.22,12.01865 -3.22,12.01864 v 11.62869 11.6286 l 3.2133,7.2659 3.2133,7.2659 3.7867,2.1243 3.7867,2.1243 5.1035,-0.5725 5.1035,-0.5725 2.5352,-2.2944 z m -369.40889,-66.57132 27.33334,-1.9685 20,-1.98518 19.99999,-1.98516 15.33334,-1.3595 15.33333,-1.3595 12,-0.76646 12,-0.76647 20.66667,-1.98571 20.66666,-1.9857 9.33336,-1.2871 9.3333,-1.28708 11.3333,-2.07436 11.3334,-2.07434 13.3275,-2.3024 13.3276,-2.3024 0.4496,-2.33466 0.4496,-2.33465 -43.1105,0.78564 -43.11049,0.78563 -20,1.34862 -20,1.34863 -20.66667,0.48555 -20.66666,0.48554 -13.33333,1.3959 -13.33334,1.3959 -25.33333,2.68187 -25.33333,2.68187 -7.08344,1.93652 -7.08346,1.93652 -3.35656,2.1993 -3.35657,2.19931 -1.77416,4.21949 -1.77416,4.2195 0.6262,1.0132 0.62619,1.01321 4.25465,-0.003 4.25464,-0.003 27.33333,-1.9685 z m -178.71354,-13.0105 2.04224,-3.6502 -1.74567,-2.79526 -1.74565,-2.79524 0.84309,-3.83861 0.84311,-3.83861 -3.48219,-0.87396 -3.48217,-0.87398 -2.61293,2.36468 -2.61295,2.36468 v 6.16334 6.16334 l 2.12875,3.0392 2.12873,3.03922 2.82671,-0.4092 2.82669,-0.4092 z m -16.28645,-58.78091 3,-2.7004 v -3.18857 -3.18856 l -1.30519,-2.43877 -1.30519,-2.43876 -3.78837,-1.32064 -3.78837,-1.32063 -4.19332,1.76315 -4.19331,1.76316 -0.85767,3.41722 -0.85768,3.41724 0.85768,3.41724 0.85767,3.41723 4.21705,1.77313 4.21704,1.77313 2.06983,-0.72238 2.06983,-0.72238 z m -4.36198,-24.3974 2.16184,-2.16184 -0.39993,-2.02857 -0.39993,-2.02859 -2.15211,-1.3551 -2.15209,-1.35511 -2.18124,0.83701 -2.18123,0.83702 v 3.10852 3.1085 l 1.6,1.6 1.6,1.6 h 0.97143 0.97142 z m 96.73459,-17.21329 3.17077,-3.37515 -4.9122,-9.62485 -4.9122,-9.62487 -5.28838,-10 -5.28839,-10 -1.25304,-23.11526 -1.25305,-23.11528 -1.27524,-1.27524 -1.27526,-1.27526 -2.93002,7.72386 -2.93003,7.72385 -1.43411,12.93076 -1.43412,12.93077 1.46644,8.40256 1.46643,8.40258 4.61495,9.37102 4.61494,9.37103 6.78464,8.96231 6.78466,8.9623 h 1.05621 1.05621 z m -87.95163,-136.67177 2.57902,-1.38025 v -5.01975 -5.01976 l -1.6,-1.6 -1.6,-1.6 h -3.65774 -3.65772 l -2.07561,2.96335 -2.0756,2.96333 v 2.07332 2.07332 l 2.0756,2.96333 2.07561,2.96335 h 2.67872 2.67871 z m 572.4414,-48.47633 4.4434,-1.85658 1.5138,-4.34238 1.5137,-4.3424 v -7.4945 -7.4945 l -2.5854,-9.30654 -2.5854,-9.30653 -3.3723,-7.33333 -3.3722,-7.33333 -4.4574,-8 -4.4574,-8 h -1.8133 -1.8134 l -3.8472,9.33333 -3.8471,9.33333 -4.5897,13.12487 -4.5896,13.12488 2.6652,3.38826 2.6652,3.38828 v 3.94322 3.94321 l -2.6666,3.39012 -2.6667,3.39012 v 1.65692 1.65693 l 1.9874,1.64938 1.9873,1.64936 5.0127,1.7887 5.0126,1.7887 7.7095,0.0585 7.7095,0.0585 4.4434,-1.85657 z m -697.90929,-12.72244 1.38024,-2.57902 v -5.78112 -5.78112 l -2.71425,-9.7947 -2.71425,-9.79471 -2.44072,-4.75745 -2.44071,-4.75744 -1.36241,2.57894 -1.3624,2.57896 -1.65588,8 -1.65588,8 -0.16008,8.72314 -0.16008,8.72314 2.36406,3.61019 2.36408,3.6102 h 4.58902 4.58901 z m 476.23253,-61.31456 3.1477,-2.56024 -0.41948,-18.43976 -0.41948,-18.43976 -0.94249,-4.53941 -0.94248,-4.53942 -2.23435,-1.40938 -2.23433,-1.40939 -3.60083,1.28213 -3.60082,1.28214 -2.80287,3.76693 -2.80287,3.76693 v 16.23307 16.23307 l 1.76158,4.17193 1.76157,4.17192 2.90509,1.40451 2.9051,1.40449 2.18562,0.0903 2.18562,0.0903 3.14772,-2.56024 z m -570.01771,-35.33637 -3.83211,-3.13406 -5.02697,-20.89929 -5.02697,-20.89929 -0.7762,-0.77622 -0.77622,-0.77621 -0.62912,1.85751 -0.62912,1.8575 -4.05908,18.40258 -4.05908,18.40257 -1.34318,2.50977 -1.34319,2.50978 v 2.08765 2.08765 l 15.66667,-0.048 15.66666,-0.048 -3.83209,-3.13404 z m 914.93207,-72.11168 3.9713,-3.34164 1.6404,-6.83785 1.6404,-6.83786 -0.7745,-8.29366 -0.7744,-8.29366 -5.8335,-13.19352 -5.8335,-13.19352 -2.1215,-0.40929 -2.1216,-0.40929 -5.3478,16.40929 -5.3478,16.40929 -0.9155,5.0089 -0.9155,5.0089 0.897,5.98122 0.8969,5.98122 4.4106,4.67655 4.4105,4.67654 h 4.0736 4.0736 z m -843.93394,-59.87039 4.83396,-4.83548 -0.16059,-8.97625 -0.16058,-8.97625 -2.21264,-8.66667 -2.21266,-8.66667 -2.9601,-5.92353 -2.9601,-5.92353 -2.28529,-1.37267 -2.28528,-1.37268 -3.71472,2.76844 -3.7147,2.76844 -2.18116,5.86109 -2.18116,5.86111 -2.19003,17.01693 -2.19001,17.01695 1.4047,2.62471 1.4047,2.6247 3.63314,2.04695 3.63315,2.04695 5.8327,-0.54352 5.83272,-0.54354 z m 839.12954,-144.99845 4.0405,-2.87714 2.7748,-6.12286 2.775,-6.12286 -0.1888,-10.66667 -0.1887,-10.66667 -3.3037,-12.84074 -3.3036,-12.84076 -4.5176,-10.48723 -4.5176,-10.48722 -2.1228,-0.40882 -2.1228,-0.40882 -4.2434,11.07013 -4.2434,11.07013 -3.23,12 -3.2301,12 v 13.17596 13.17595 l 2.7619,4.46885 2.7619,4.46885 3.4179,2.68852 3.4179,2.68854 h 4.6144 4.6143 l 4.0406,-2.87714 z m -433.49276,-21.50494 4.5305,-3.04874 1.78631,-5.2846 1.78629,-5.28458 -0.78382,-8.87328 -0.78384,-8.87327 -2.53859,-7.7934 -2.53859,-7.79339 -4.4765,-10.55975 -4.47651,-10.55978 -1.57582,-0.52526 -1.57583,-0.52528 -2.25964,4.36968 -2.25965,4.36968 -5.31552,14.71535 -5.31551,14.71536 -0.16972,10 -0.16972,10 3.00831,4.83748 3.0083,4.8375 4.32503,2.13214 4.32503,2.13216 3.46949,0.0304 3.46948,0.0304 4.53052,-3.04874 z m 147.32776,-5.392 3.6125,-3.10742 0.6025,-7.26526 0.6025,-7.26527 -2.0293,-4.85695 -2.0294,-4.85694 -3.4526,-2.26222 -3.4525,-2.2622 -4.0954,1.69638 -4.0955,1.69637 -1.7342,2.79547 -1.7343,2.79545 -0.8319,4.51388 -0.8319,4.51388 1.4288,5.30605 1.4288,5.30606 3.18,3.18006 3.1801,3.18007 h 3.3196 3.3196 z m -686.24366,-28.56132 4.5536,-2.33127 2.53099,-4.66667 2.53097,-4.66666 -0.54502,-12.66667 L 365.74575,190 l -3.67197,-10.62959 -3.67198,-10.62959 -4.551,-9.03708 -4.551,-9.03708 h -1.28584 -1.28582 l -2.04819,3.12591 -2.04817,3.12592 -4.1314,11.20741 -4.13141,11.20743 -1.85116,8.66617 -1.85115,8.66616 0.008,6.66718 0.008,6.66715 1.45371,5.33334 1.45369,5.33333 2.8722,3.14581 2.8722,3.14582 2.66666,1.103 2.66667,1.10301 4,0.0824 4,0.0824 4.55359,-2.33125 z M 765.65891,204.37372 768.28374,202 l 2.70001,-5.29036 2.70003,-5.29038 -0.79008,-10.04296 -0.79007,-10.04297 -3.82849,-12.69531 -3.82849,-12.69532 -5.22334,-9.97134 L 753.99998,126 h -1.99251 -1.99251 l -3.71094,12.66666 -3.71093,12.66667 -1.9614,10.66667 -1.9614,10.66666 -10e-4,8.51198 -0.001,8.51197 1.59079,5.30959 1.5908,5.30958 3.75385,3.75386 3.75386,3.75385 2.98867,0.47769 2.9887,0.47769 3.85038,-1.01272 3.85039,-1.01273 2.62483,-2.3737 z M 540.00067,129 l 4.39502,-3 2.46882,-4.64587 2.46881,-4.64586 v -8.54372 -8.543718 l -2.70956,-9.098188 -2.70956,-9.098186 -2.92044,-2.045563 -2.92045,-2.045564 h -3.767 -3.76699 l -3.09603,3.340667 -3.09602,3.340667 -2.17364,7.746805 -2.17364,7.746805 v 7.824895 7.8249 l 2.84868,5.88458 2.84868,5.88459 4.15132,2.53139 4.15132,2.5314 0.80282,0.005 0.80282,0.005 4.39504,-3 z m -7.77902,-38.42862 -3.11166,-1.234732 0.54345,-1.668325 0.54345,-1.668325 3.43543,-1.675776 3.43541,-1.675777 2.02971,0.778868 2.02969,0.778869 0.81347,2.119864 0.81348,2.119865 -1.04372,0.960517 -1.04371,0.960518 -2.66666,0.719584 -2.66667,0.719584 z m 379.33583,12.65856 0.80715,-2.10339 -2.18233,-2.182322 -2.18232,-2.182325 -2.2188,2.218796 -2.21879,2.218791 1.71539,2.06692 1.71538,2.06692 h 1.87859 1.87859 z m -99.32915,-28.103259 2.43832,-2.206649 v -6.040748 -6.040749 l -2.89908,-3.085935 -2.8991,-3.085935 h -3.00413 -3.00415 l -2.76344,3.513146 -2.76344,3.513143 v 3.717888 3.717888 l 3.45186,4.102302 3.45186,4.102299 h 2.77648 2.7765 z m 94.10537,-6.792648 0.5547,-1.665965 -2.2005,-0.844412 -2.2005,-0.844411 -1.39421,1.3942 -1.3942,1.3942 0.94148,1.523335 0.94147,1.523334 2.09853,-0.407158 2.09853,-0.407158 z"
         id="path267" />
      <path
         style="fill:#889ab2;stroke-width:1.33333"
         d="M 0,682.66665 V 0 H 682.66665 1365.3333 V 176.08985 352.1797 l -2.3333,-0.67031 -2.3334,-0.67029 -9.4445,-2.74319 -9.4445,-2.74319 -14.5555,-3.27229 -14.5555,-3.27228 -20,-3.39077 -20,-3.39079 -21.3333,-2.67108 -21.3333,-2.67109 -16,-1.3242 -16,-1.32421 -22,-1.50456 -22,-1.50458 -19.3755,0.83758 -19.3755,0.83758 -12.616,2.04048 -12.616,2.0405 -1.0936,1.09358 -1.0936,1.09359 2.0811,39.18157 2.081,39.18157 1.3895,25.33334 1.3894,25.33333 0.6609,5.431 0.661,5.43101 12.8017,12.99031 12.8018,12.9903 8.8185,7.01271 8.8186,7.01269 14.254,9.54262 14.2541,9.54261 13.0793,6.88539 13.0793,6.88538 10,5.01012 10,5.01011 23.3333,8.04544 23.3333,8.04544 19.3334,4.61581 19.3333,4.61583 12.6667,2.033 12.6666,2.033 14.6667,1.50035 14.6667,1.50036 5.6666,0.68162 5.6667,0.68163 V 975.415 1365.3333 H 682.66665 0 Z m 671.75526,423.06745 -3.08861,-10.4008 0.0424,-27.3333 0.0424,-27.3334 3.76457,-18 3.76458,-18 4.61744,-15.91666 4.61744,-15.91672 7.16116,-20.08328 7.16114,-20.0833 4.12816,-9.96414 4.12816,-9.96415 2.52298,-2.70252 2.52296,-2.70252 7.57317,-16 7.57317,-16 2.57235,-6.50668 2.57236,-6.50669 -0.72945,-0.72944 -0.72944,-0.72945 -4.1288,3.9028 -4.1288,3.9028 -7.67604,9.34004 -7.67606,9.34004 -4.69736,9.32662 -4.69737,9.32663 -8.93736,15.28236 -8.93736,15.28236 -7.79012,11.3843 -7.79011,11.38431 -2.66604,6.23304 -2.66602,6.23304 -3.3097,13.76696 -3.3097,13.76696 -1.63167,11.21159 -1.63167,11.2116 0.72244,20.1217 0.72243,20.1218 2.22976,10.5621 2.22975,10.562 4.43894,12.4197 4.43895,12.4196 4.39432,5.5483 4.39431,5.5482 0.48749,-1.4624 0.48749,-1.4625 -3.08861,-10.4009 z m -229.07816,-21.751 1.21193,-1.961 -0.54299,-2.6777 -0.54298,-2.6778 -0.83994,-8.9901 -0.83994,-8.9902 2.10508,-2.1051 2.10506,-2.105 0.20736,-3.5715 0.20738,-3.5714 -0.26106,-3.3333 -0.26105,-3.3334 -2.76069,-2.3333 -2.7607,-2.3333 h -2.88894 -2.88895 l -2.77107,1.9409 -2.77106,1.9409 -2.27162,8.096 -2.27162,8.096 -1.14226,14.2712 -1.14225,14.2712 0.42773,0.6919 0.42775,0.6919 9.52645,-0.028 9.52644,-0.028 1.21194,-1.961 z m 756.0651,-50.0515 2.5352,-2.2943 2.6946,-7.202 2.6946,-7.202 v -8.4994 -8.4993 l -1.8801,-9.784 -1.88,-9.78396 -4.8823,-16.66666 -4.8822,-16.66667 -1.0275,-1.05651 -1.0275,-1.0565 -1.3805,1.72317 -1.3804,1.72317 -4.9397,11.3147 -4.9397,11.31468 -3.22,12.01865 -3.22,12.01864 v 11.62869 11.6286 l 3.2133,7.2659 3.2133,7.2659 3.7867,2.1243 3.7867,2.1243 5.1035,-0.5725 5.1035,-0.5725 2.5352,-2.2944 z m -369.40889,-66.57132 27.33334,-1.9685 20,-1.98518 19.99999,-1.98516 15.33334,-1.3595 15.33333,-1.3595 12,-0.76646 12,-0.76647 20.66667,-1.98571 20.66666,-1.9857 9.33336,-1.2871 9.3333,-1.28708 11.3333,-2.07436 11.3334,-2.07434 13.3275,-2.3024 13.3276,-2.3024 0.4496,-2.33466 0.4496,-2.33465 -43.1105,0.78564 -43.11049,0.78563 -20,1.34862 -20,1.34863 -20.66667,0.48555 -20.66666,0.48554 -13.33333,1.3959 -13.33334,1.3959 -25.33333,2.68187 -25.33333,2.68187 -7.08344,1.93652 -7.08346,1.93652 -3.35656,2.1993 -3.35657,2.19931 -1.77416,4.21949 -1.77416,4.2195 0.6262,1.0132 0.62619,1.01321 4.25465,-0.003 4.25464,-0.003 27.33333,-1.9685 z m -178.71354,-13.0105 2.04224,-3.6502 -1.74567,-2.79526 -1.74565,-2.79524 0.84309,-3.83861 0.84311,-3.83861 -3.48219,-0.87396 -3.48217,-0.87398 -2.61293,2.36468 -2.61295,2.36468 v 6.16334 6.16334 l 2.12875,3.0392 2.12873,3.03922 2.82671,-0.4092 2.82669,-0.4092 z m 254.38021,-55.62892 5.66666,-5.48655 v -1.28384 -1.28383 H 897.49656 884.3265 l -1.54284,1.859 -1.54283,1.859 5.70144,1.80767 5.70143,1.80767 0.42288,2.66666 0.42286,2.66667 0.56882,1.72416 0.56882,1.72417 2.35311,-1.28712 2.35312,-1.2871 z m -270.66666,-3.15199 3,-2.7004 v -3.18857 -3.18856 l -1.30519,-2.43877 -1.30519,-2.43876 -3.78837,-1.32064 -3.78837,-1.32063 -4.19332,1.76315 -4.19331,1.76316 -0.85767,3.41722 -0.85768,3.41724 0.85768,3.41724 0.85767,3.41723 4.21705,1.77313 4.21704,1.77313 2.06983,-0.72238 2.06983,-0.72238 z m -217.82446,-1.34371 2.50886,-0.94288 10.95676,1.53278 10.95676,1.53277 6.53438,-1.97701 6.53437,-1.97703 6.30195,-0.24821 6.30194,-0.2482 3.0423,1.99337 3.04228,1.99339 10.65577,-0.0717 10.65576,-0.0717 6.4246,0.1244 6.4246,0.1244 3.17437,-1.66323 3.17436,-1.66321 5.06771,-6.75156 5.06769,-6.75154 8,-9.16796 8,-9.16796 7.33333,-8.19236 7.33334,-8.19236 9.29912,-11.86352 9.29913,-11.86352 4.36753,-6.49014 4.36755,-6.49014 v -1.70684 -1.70684 l -15.65939,-1.6868 -15.65937,-1.6868 -103.1686,0.80004 -103.16858,0.80005 -0.60176,0.60176 -0.60176,0.60176 2.42973,4.54245 2.42973,4.54247 8,11.07827 8,11.07828 16,21.37317 16,21.37317 4.32664,5.46524 4.32666,5.46525 3.51172,5.24551 3.51173,5.24549 1.49496,-1.99478 1.49496,-1.9948 2.50887,-0.9429 z m 711.10734,-4.2414 4.6829,-4.68287 -0.5273,-9.3312 -0.5273,-9.3312 -3.6495,-3.65259 -3.6496,-3.65259 h -11.5995 -11.5995 l -1.6481,7.33334 -1.6481,7.33333 -0.8845,8.86939 -0.8846,8.86939 0.9048,1.46394 0.9048,1.46394 h 12.7213 12.7213 z m -61.1483,1.01622 1.2285,-2.33334 0.9763,-13.86341 0.9764,-13.86341 -20.4912,0.79329 -20.4913,0.79328 -14.6666,2.69803 -14.66669,2.69801 -12.66667,2.65714 -12.66666,2.65713 -9.95802,2.12684 -9.95801,2.12684 -1.70865,1.41807 -1.70866,1.41805 v 4.42472 4.42472 l 1.66667,1.07868 1.66667,1.07869 42.66666,0.70308 42.66666,0.70307 12.9531,0.29693 12.9531,0.29692 z m -436.49656,-19.82851 2.16184,-2.16184 -0.39993,-2.02857 -0.39993,-2.02859 -2.15211,-1.3551 -2.15209,-1.35511 -2.18124,0.83701 -2.18123,0.83702 v 3.10852 3.1085 l 1.6,1.6 1.6,1.6 h 0.97143 0.97142 z m 96.73459,-17.21329 3.17077,-3.37515 -4.9122,-9.62485 -4.9122,-9.62487 -5.28838,-10 -5.28839,-10 -1.25304,-23.11526 -1.25305,-23.11528 -1.27524,-1.27524 -1.27526,-1.27526 -2.93002,7.72386 -2.93003,7.72385 -1.43411,12.93076 -1.43412,12.93077 1.46644,8.40256 1.46643,8.40258 4.61495,9.37102 4.61494,9.37103 6.78464,8.96231 6.78466,8.9623 h 1.05621 1.05621 z m -87.95163,-136.67177 2.57902,-1.38025 v -5.01975 -5.01976 l -1.6,-1.6 -1.6,-1.6 h -3.65774 -3.65772 l -2.07561,2.96335 -2.0756,2.96333 v 2.07332 2.07332 l 2.0756,2.96333 2.07561,2.96335 h 2.67872 2.67871 z m 572.4414,-48.47633 4.4434,-1.85658 1.5138,-4.34238 1.5137,-4.3424 v -7.4945 -7.4945 l -2.5854,-9.30654 -2.5854,-9.30653 -3.3723,-7.33333 -3.3722,-7.33333 -4.4574,-8 -4.4574,-8 h -1.8133 -1.8134 l -3.8472,9.33333 -3.8471,9.33333 -4.5897,13.12487 -4.5896,13.12488 2.6652,3.38826 2.6652,3.38828 v 3.94322 3.94321 l -2.6666,3.39012 -2.6667,3.39012 v 1.65692 1.65693 l 1.9874,1.64938 1.9873,1.64936 5.0127,1.7887 5.0126,1.7887 7.7095,0.0585 7.7095,0.0585 4.4434,-1.85657 z m -697.90929,-12.72244 1.38024,-2.57902 v -5.78112 -5.78112 l -2.71425,-9.7947 -2.71425,-9.79471 -2.44072,-4.75745 -2.44071,-4.75744 -1.36241,2.57894 -1.3624,2.57896 -1.65588,8 -1.65588,8 -0.16008,8.72314 -0.16008,8.72314 2.36406,3.61019 2.36408,3.6102 h 4.58902 4.58901 z m 476.23253,-61.31456 3.1477,-2.56024 -0.41948,-18.43976 -0.41948,-18.43976 -0.94249,-4.53941 -0.94248,-4.53942 -2.23435,-1.40938 -2.23433,-1.40939 -3.60083,1.28213 -3.60082,1.28214 -2.80287,3.76693 -2.80287,3.76693 v 16.23307 16.23307 l 1.76158,4.17193 1.76157,4.17192 2.90509,1.40451 2.9051,1.40449 2.18562,0.0903 2.18562,0.0903 3.14772,-2.56024 z m -203.50375,-24.2168 2.11031,-2.11039 4.47392,-18.07821 4.47391,-18.07823 2.24156,-14.47806 2.24156,-14.47807 1.1085,-10.66667 1.10851,-10.66666 7.20791,-14.10991 7.2079,-14.10989 6.28198,-8.55677 6.28198,-8.55676 15.04192,-22.66667 15.04192,-22.66667 13.05094,-16.66666 13.05093,-16.66667 5.53052,-7.15975 5.53052,-7.15974 10.34424,-12.84025 10.34424,-12.84026 3.76028,-4.66666 3.76028,-4.66667 2.38216,-3.66667 2.38216,-3.66666 h 1.74434 1.74436 l 4.16076,3.50105 4.16078,3.50105 2.86985,5.49895 2.86985,5.49895 0.0717,8 0.0717,8 -3.07805,6 -3.07806,5.99999 -1.3534,16.66667 -1.3534,16.66667 -0.9092,46.66666 -0.90921,46.66667 -1.53691,2.66667 -1.53692,2.66666 -3.32469,3.10929 -3.32471,3.10931 -5.38386,0.72212 -5.38386,0.72213 -3.32062,-0.83342 -3.32064,-0.83343 -2.09323,-2.09324 -2.09324,-2.09324 v -8.97324 -8.97324 l 3.31109,-11.26485 3.31111,-11.26485 1.33944,-11.33334 1.33944,-11.33333 2.00384,-20 2.00384,-20 0.89321,-13.87777 0.89322,-13.87778 -1.88092,1.15658 -1.88094,1.15657 -4.37421,3.97264 -4.37423,3.97264 -9.62577,12.52619 -9.62579,12.52618 -4.84377,6.78339 -4.84378,6.78337 -4.04516,8.10566 -4.04515,8.10566 2.43744,21.33334 2.43744,21.33333 2.11816,27.4558 2.11816,27.4558 v 16.87753 16.87753 h 2.36452 2.36453 l 15.9688,-8.86506 15.96881,-8.86508 17.0588,-11.26284 17.0588,-11.26284 16.27454,-16.22538 16.27453,-16.22535 10.95936,-14.20974 10.95936,-14.20972 4.8436,-4.7041 4.8437,-4.7041 6.8721,-1.42665 6.8722,-1.42665 6.6581,1.26373 6.6582,1.26375 6,2.58325 6,2.58325 13.0945,8.95318 13.0945,8.95316 2.0298,-0.77892 2.0298,-0.77892 -0.7539,-6.32748 -0.7539,-6.32748 -1.4149,-24 -1.4149,-24 -1.9857,-31.29686 -1.9857,-31.29686 -1.1733,-1.17336 -1.1734,-1.17337 -12.1946,3.58801 -12.1946,3.588 -1.8883,-0.7246 -1.8883,-0.72461 -4.5485,-9.05984 -4.5486,-9.05984 -9.5439,-22.44836 -9.5439,-22.44838 -6.533,-13.01856 -6.533,-13.01856 -7.60202,-13.19973 -7.60203,-13.19975 -16.00892,-23.74321 -16.00893,-23.74321 -10.46368,-11.45517 -10.46368,-11.45516 -2.93249,-2.054 -2.9325,-2.054 -2.3093,-2.30931 -2.30931,-2.30931 -11.77165,-7.8719 -11.77175,-7.87191 -15.33333,-7.52141 -15.33333,-7.52141 -15.64548,-4.68176 -15.64548,-4.68177 -12.35452,-2.05518 -12.35452,-2.055176 -6,-1.413261 -6,-1.413263 -30.66667,-0.709728 -30.66666,-0.709728 -21.33334,2.893938 -21.33333,2.893938 -10,2.01702 -10,2.01703 -18.30324,5.20948 -18.30324,5.20948 -17.69676,6.79832 -17.69676,6.79831 -21.98245,11.41013 -21.98245,11.41012 -14.76866,9.71109 -14.76865,9.7111 -16.87303,13.4736 -16.87302,13.47361 -13.10043,13.01822 -13.10041,13.01824 -8.60879,11.25628 -8.60877,11.2563 -6.06631,8.74588 -6.06632,8.74588 -8.4557,15.94762 -8.45572,15.94762 -4.40162,13.41582 -4.4016,13.41584 -2.74304,13.46028 -2.74302,13.46028 0.0175,13.79055 0.0175,13.79056 2.538,12.29872 2.538,12.29872 3.56916,11.03461 3.56916,11.03461 4.77421,8.66667 4.77422,8.66667 7.76202,11.44552 7.76203,11.44552 15.00576,14.61385 15.00574,14.61385 10.66667,8.06819 10.66667,8.06818 10,6.03667 10,6.03667 12.67418,6.50244 12.67419,6.50244 6.65915,2.89968 6.65914,2.89968 5.33334,2.23921 5.33333,2.23921 15.33333,5.24374 15.33334,5.24374 13.78487,3.28404 13.7849,3.28403 h 2.38177 2.38179 l 0.83333,-4.16667 0.83333,-4.16666 2.7e-4,-10.16667 2.7e-4,-10.16667 2.03082,-26 2.03083,-26 3.29177,-35.25619 3.29178,-35.2562 1.18137,-1.18138 1.18137,-1.18137 3.81331,0.43757 3.81331,0.43758 0.93894,5.33333 0.93895,5.33333 0.10533,14 0.10534,14 1.89845,28 1.89845,28 2.18236,31.33333 2.18236,31.33334 1.01283,1.05545 1.01281,1.05545 8.54455,1.2922 8.54455,1.29222 13.33333,1.20541 13.33333,1.20543 34.95246,-0.21975 34.95246,-0.21975 2.11029,-2.11037 z m -50.01415,-9.55629 10e-4,-3 3.83092,-8.09776 3.83092,-8.09776 5.13908,-4.23606 5.13906,-4.23606 15.21296,-7.37106 15.21296,-7.37106 0.68699,0.68698 0.68699,0.68699 -5.87099,5.68456 -5.871,5.68456 -7.86548,11.00796 -7.86547,11.00796 -6.13453,3.69547 -6.13452,3.69546 -3.7294,1.62991 -3.72941,1.62991 h -1.27059 -1.2706 z m 243.73835,-147.59828 -4.92725,-0.95829 -4.70684,-3.22171 -4.70684,-3.22172 -3.64276,-6.66667 -3.64275,-6.66666 -0.53821,-12.08971 -0.5382,-12.08972 2.24362,-2.24361 2.24363,-2.24363 h 2.40816 2.40817 l 1.60771,-1.93717 1.60772,-1.93718 -2.78044,-15.06282 -2.78043,-15.06283 -3.4397,-18 -3.43972,-18 -3.8662,-18.66666 -3.86622,-18.66667 -4.07429,-21.33333 -4.07429,-21.33334 -4.61714,-26.14042 -4.61714,-26.14044 V 158.85957 156 h 1.05161 1.05163 l 4.17416,7 4.17416,7 4.66058,16 4.66059,16 3.51701,15.33333 3.51702,15.33333 1.86702,8 1.86703,8 2.80023,12.66667 2.80021,12.66666 2.62495,11.33334 2.62494,11.33333 3.90908,17.33333 3.90908,17.33334 2.68778,9.99999 2.68777,10 3.95904,16.66667 3.95904,16.66667 2.2284,10.66666 2.22841,10.66667 0.666,4.33333 0.66598,4.33334 -7.81251,-0.15334 -7.81255,-0.15333 z m -128.40608,-44.81664 -1.33333,-0.53772 -35.16999,-4.05005 -35.16998,-4.05004 -1.16335,-0.71899 -1.16335,-0.71899 v -1.66028 -1.66026 l 3.90106,-5.92771 3.90105,-5.92771 11.09895,-16.30446 11.09894,-16.30448 7.33334,-8.94041 7.33333,-8.94042 7.13328,-7.8885 7.13328,-7.8885 -1.13328,-1.07549 -1.13328,-1.07548 -19.06529,-2.85803 -19.06528,-2.85802 -1.84155,-0.70667 -1.84155,-0.70667 -1.41224,-4.05114 -1.41222,-4.05115 0.84326,-3.35985 0.84327,-3.35987 10.80913,0.78752 10.80914,0.78751 16,2.65452 16,2.65453 6.2732,0.88491 6.2732,0.8849 1.97625,1.5243 1.97625,1.52429 0.89735,4.99149 0.89733,4.99151 -3.81346,3.23423 -3.81346,3.23422 -6.66666,5.60435 -6.66667,5.60433 -12.14339,14.7338 -12.14338,14.73379 -6.31227,10.36555 -6.31227,10.36554 0.79598,1.28791 0.79597,1.28792 4.99301,0.82204 4.99302,0.82205 21.09652,2.45716 21.09653,2.45716 1.37017,1.37017 1.37018,1.37018 -2.17062,7.46662 -2.17061,7.46664 -2.29608,-0.10533 -2.29609,-0.1052 -1.33334,-0.53773 z m -97.33333,-10.80323 -6.66666,-0.40416 -19.11819,-1.43345 -19.11819,-1.43344 -3.37733,-1.28407 -3.37732,-1.28405 -1.73423,1.43928 -1.73422,1.43928 -6.42051,-0.41063 -6.42049,-0.41061 -2.84152,-13.75842 -2.84152,-13.75843 -1.2451,-1.24509 -1.24509,-1.2451 -9.92981,-1.28864 -9.92982,-1.28865 -4.88105,-0.0412 -4.88107,-0.0412 -2.65133,5.66667 -2.65135,5.66666 -1.61766,7.33334 -1.61766,7.33333 -1.80636,2.88657 -1.80634,2.88657 -2.66658,-0.69733 -2.66657,-0.69732 -1.43013,-1.7232 -1.43012,-1.7232 2.71977,-10.38382 2.71979,-10.38383 v -3.17371 -3.1737 l 6.14661,-18.90851 6.14661,-18.90852 3.0392,-8.66667 3.0392,-8.66666 5.96283,-13.33334 5.96281,-13.33333 1.6918,-5.33333 1.6918,-5.33334 1.32283,-1.66666 1.32283,-1.66667 h 3.63777 3.63777 l 4.207,1.46657 4.20702,1.46656 0.58777,2.86678 0.58779,2.86676 0.80741,14 0.80743,14 1.88028,19.33333 1.88029,19.33333 3.44791,21.33334 3.4479,21.33333 0.69176,2.33333 0.69175,2.33333 h 1.16069 1.16071 l 5.43961,-10.86799 5.4396,-10.868 16.562,-24.9482 16.56199,-24.94822 4.78821,-8.86812 4.7882,-8.8681 -3.51624,-1.33688 -3.51625,-1.33687 -13.52411,-1.45911 -13.52412,-1.45909 -2.31758,-1.22485 -2.3176,-1.22487 -0.84951,-3.38473 -0.84951,-3.38472 1.23595,-4.24346 1.23596,-4.24345 3.26448,0.17191 3.26448,0.17192 14.66667,2.18382 14.66666,2.18382 12.16236,2.61226 12.16236,2.61226 3.50431,1.33234 3.5043,1.33234 v 2.38922 2.38924 l -5.72729,6.64378 -5.72731,6.64376 -10.22428,13.04414 -10.22429,13.04415 -10.52045,16.95585 -10.52047,16.95586 -2.1595,4.19921 -2.15951,4.19921 1.63156,1.31816 1.63155,1.31816 7.33333,0.93072 7.33333,0.93072 10,2.00444 10,2.00445 1.50599,1.24403 1.50597,1.24403 0.79525,3.63677 0.79526,3.63676 0.85428,3 0.85426,3 -5.82217,-0.24033 -5.82217,-0.24034 -6.66667,-0.40414 z m -78.92128,-59.78185 -0.2546,-8 -1.54424,-10.13517 -1.54422,-10.13517 -1.14564,-1.85368 -1.14564,-1.85368 -1.17268,1.32218 -1.1727,1.32219 -7.1401,17.76231 -7.14012,17.7623 1.92394,1.24726 1.92395,1.24725 9.33333,-0.34289 9.33334,-0.3429 z m -107.07871,43.87304 -4.66667,-0.54845 -8.61225,-2.21919 -8.61226,-2.2192 -7.72108,-7.50852 -7.72108,-7.50852 v -5.03714 -5.03715 l 4.04254,-4.04252 4.04252,-4.04253 3.62414,0.72488 3.62414,0.72488 9.68618,3.45877 9.68619,3.45879 17.59432,-0.37191 17.59432,-0.37189 2.34649,-7.71367 2.34648,-7.71368 2.37302,-15.61965 2.373,-15.61967 -0.0808,-58.33333 L 609.83839,148 h 8.97851 8.97851 l 4.28548,3.606 4.28549,3.606 -0.8053,12.06066 -0.80532,12.06067 -2.75712,21.33333 -2.75714,21.33333 -3.24678,20 -3.24679,20 -1.32704,10.66667 -1.32704,10.66667 -2.66528,12.05934 -2.66529,12.05936 -2.62888,7.94064 -2.62888,7.94066 -2.14593,6 -2.14592,6 -2.2735,2.99232 -2.27349,2.99232 -14,0.55175 -14,0.55176 -4.66667,-0.54845 z m 270.56275,222.68305 11.43724,-2.11056 1.70387,-1.64092 1.70386,-1.64092 0.73046,-47.91519 0.73045,-47.91517 -1.30819,-1.8746 -1.30818,-1.8746 -10.01542,4.7563 -10.01541,4.7563 -0.67927,7.1183 -0.67926,7.1183 -3.5849,40.21239 -3.58489,40.21238 0.8988,1.45428 0.89879,1.45428 h 0.81741 0.8174 z m -419.06151,-5.11937 -3.83211,-3.13406 -5.02697,-20.89929 -5.02697,-20.89929 -0.7762,-0.77622 -0.77622,-0.77621 -0.62912,1.85751 -0.62912,1.8575 -4.05908,18.40258 -4.05908,18.40257 -1.34318,2.50977 -1.34319,2.50978 v 2.08765 2.08765 l 15.66667,-0.048 15.66666,-0.048 -3.83209,-3.13404 z m 910.12767,-276.98052 4.0405,-2.87714 2.7748,-6.12286 2.775,-6.12286 -0.1888,-10.66667 -0.1887,-10.66667 -3.3037,-12.84074 -3.3036,-12.84076 -4.5176,-10.48723 -4.5176,-10.48722 -2.1228,-0.40882 -2.1228,-0.40882 -4.2434,11.07013 -4.2434,11.07013 -3.23,12 -3.2301,12 v 13.17596 13.17595 l 2.7619,4.46885 2.7619,4.46885 3.4179,2.68852 3.4179,2.68854 h 4.6144 4.6143 l 4.0406,-2.87714 z m -286.165,-26.89694 3.6125,-3.10742 0.6025,-7.26526 0.6025,-7.26527 -2.0293,-4.85695 -2.0294,-4.85694 -3.4526,-2.26222 -3.4525,-2.2622 -4.0954,1.69638 -4.0955,1.69637 -1.7342,2.79547 -1.7343,2.79545 -0.8319,4.51388 -0.8319,4.51388 1.4288,5.30605 1.4288,5.30606 3.18,3.18006 3.1801,3.18007 h 3.3196 3.3196 z m -686.24366,-28.56132 4.5536,-2.33127 2.53099,-4.66667 2.53097,-4.66666 -0.54502,-12.66667 L 365.74575,190 l -3.67197,-10.62959 -3.67198,-10.62959 -4.551,-9.03708 -4.551,-9.03708 h -1.28584 -1.28582 l -2.04819,3.12591 -2.04817,3.12592 -4.1314,11.20741 -4.13141,11.20743 -1.85116,8.66617 -1.85115,8.66616 0.008,6.66718 0.008,6.66715 1.45371,5.33334 1.45369,5.33333 2.8722,3.14581 2.8722,3.14582 2.66666,1.103 2.66667,1.10301 4,0.0824 4,0.0824 4.55359,-2.33125 z M 540.00067,129 l 4.39502,-3 2.46882,-4.64587 2.46881,-4.64586 v -8.54372 -8.543718 l -2.70956,-9.098188 -2.70956,-9.098186 -2.92044,-2.045563 -2.92045,-2.045564 h -3.767 -3.76699 l -3.09603,3.340667 -3.09602,3.340667 -2.17364,7.746805 -2.17364,7.746805 v 7.824895 7.8249 l 2.84868,5.88458 2.84868,5.88459 4.15132,2.53139 4.15132,2.5314 0.80282,0.005 0.80282,0.005 4.39504,-3 z m -7.77902,-38.42862 -3.11166,-1.234732 0.54345,-1.668325 0.54345,-1.668325 3.43543,-1.675776 3.43541,-1.675777 2.02971,0.778868 2.02969,0.778869 0.81347,2.119864 0.81348,2.119865 -1.04372,0.960517 -1.04371,0.960518 -2.66666,0.719584 -2.66667,0.719584 z m 379.33583,12.65856 0.80715,-2.10339 -2.18233,-2.182322 -2.18232,-2.182325 -2.2188,2.218796 -2.21879,2.218791 1.71539,2.06692 1.71538,2.06692 h 1.87859 1.87859 z m -99.32915,-28.103259 2.43832,-2.206649 v -6.040748 -6.040749 l -2.89908,-3.085935 -2.8991,-3.085935 h -3.00413 -3.00415 l -2.76344,3.513146 -2.76344,3.513143 v 3.717888 3.717888 l 3.45186,4.102302 3.45186,4.102299 h 2.77648 2.7765 z m 94.10537,-6.792648 0.5547,-1.665965 -2.2005,-0.844412 -2.2005,-0.844411 -1.39421,1.3942 -1.3942,1.3942 0.94148,1.523335 0.94147,1.523334 2.09853,-0.407158 2.09853,-0.407158 z m 350.035,484.671037 -5.6313,-2.82948 -2.0354,-4.28931 -2.0354,-4.28931 v -8.4694 -8.4694 l 2.5762,-9.00848 2.5762,-9.00848 4.2094,-8.90922 4.2094,-8.90923 2.577,-14.74472 2.577,-14.74472 2.0197,-19.7148 2.0197,-19.71481 -0.661,-1.06943 -0.6609,-1.06942 -17.0547,0.59362 -17.0546,0.59363 -14.4753,-3.57901 -14.4753,-3.57903 -3.8581,1.59805 -3.858,1.59806 v 3.6978 3.69778 l 2.5885,8.47378 2.5884,8.47378 6.1294,23.33334 6.1294,23.33333 2.6219,10.66666 2.6219,10.66667 1.3435,6 1.3434,6 0.21,5.87091 0.2101,5.87092 -3.041,2.46241 -3.0409,2.46243 -7.519,-0.008 -7.5189,-0.008 -4.9843,-1.38424 -4.9844,-1.38424 -1.1735,-2.27499 -1.1735,-2.275 -0.8865,-4.91452 -0.8866,-4.91451 2.8185,-25.82446 2.8184,-25.82445 -5.3328,-19.9277 -5.3328,-19.92769 -4.6977,-18.66667 -4.6977,-18.66666 -3.492,-10.62482 -3.4919,-10.62481 2.3366,-1.70852 2.3365,-1.70852 h 3.6221 3.6221 l 6.4757,3.35969 6.4757,3.35968 15.9807,3.95392 15.9807,3.95394 10.6667,1.47749 10.6666,1.47749 22.619,0.39904 22.6189,0.39906 0.4489,1.34674 0.449,1.34676 -3.3396,15.12976 -3.3396,15.12976 -2.1185,11.33334 -2.1184,11.33333 -1.1937,27.94808 -1.1938,27.94806 1.3733,11.22716 1.3733,11.22715 -0.456,12.46035 -0.4561,12.46036 -4.3333,3.95592 -4.3334,3.95593 v 1.19447 1.19448 l -3.396,1.54734 -3.3961,1.54736 -0.9373,-0.0827 -0.9372,-0.0827 -5.6313,-2.82949 z"
         id="path265" />
      <path
         style="fill:#7a8eb1;stroke-width:1.33333"
         d="M 0,682.66665 V 0 h 132.7619 132.76191 l 1.68742,1.6874357 1.68744,1.6874356 0.89628,247.3125587 0.89628,247.31256 0.24015,307.33332 0.24015,307.33329 0.50885,12.3334 0.50887,12.3333 h 55.02241 55.02242 l 34.39508,-0.885 34.39508,-0.8851 -0.93008,-88.1149 -0.93008,-88.11499 -2.44133,-2.09977 -2.44133,-2.09979 -9.07455,-13.90021 -9.07456,-13.90023 -4.45424,-5.84052 -4.45424,-5.84051 -1.86589,-4.46573 -1.86591,-4.46573 -7.59507,-9.40027 -7.59506,-9.40027 0.96248,-0.96014 0.96246,-0.96016 3.09322,3.59373 3.09321,3.59372 2.19268,3.07295 2.19267,3.07293 1.60069,-2.08263 1.60068,-2.08262 2.50887,-0.9429 2.50886,-0.94288 10.95676,1.53278 10.95676,1.53277 6.53438,-1.97701 6.53437,-1.97703 6.30195,-0.24821 6.30194,-0.2482 3.0423,1.99337 3.04228,1.99339 10.65577,-0.0717 10.65576,-0.0717 6.4246,0.1244 6.4246,0.1244 3.09564,-1.66144 3.09564,-1.66143 5.14642,-6.27174 5.14643,-6.27175 13.51008,-15.06158 13.51008,-15.06159 4.41289,-4 4.41291,-4 -2.48284,4 -2.48284,4 -7.73984,9.33333 -7.73985,9.33334 -8.36696,10.14832 -8.36696,10.14831 -7.33334,9.10758 -7.33333,9.10756 -9.35005,10.74412 -9.35007,10.7441 -8.73285,10.66667 -8.73284,10.66667 -3.12719,4.50086 -3.12717,4.50087 0.89432,69.49916 0.89432,69.4991 0.85517,19.0812 0.85518,19.0811 72.12726,-0.937 72.12725,-0.9371 2,-0.3754 2,-0.3754 30.33333,-0.102 30.33334,-0.102 v -6.7491 -6.7491 l -3.66667,-12.2509 -3.66667,-12.2509 0.10574,-28 0.10573,-28 4.26091,-19.6701 4.26089,-19.67017 6.00891,-19.35355 6.0089,-19.35355 4.00903,-10.97633 4.00903,-10.97632 4.80732,-12 4.8073,-12 2.32766,-2.66667 2.32764,-2.66666 3.68966,-7.33334 3.68967,-7.33333 7.68679,-17.16184 7.6868,-17.16184 -0.70536,-1.83816 -0.70538,-1.83816 h -1.43808 -1.43808 l -3.08068,2.89415 -3.08066,2.89415 -0.90806,-0.90806 -0.90806,-0.90805 3.56946,-3.72572 3.56947,-3.72572 v -2.37057 -2.37058 l -8.84703,-17.79966 -8.84704,-17.79966 -1.83884,-17.75681 -1.83884,-17.7568 -1.42257,-11.65525 -1.42257,-11.65526 0.93782,-4.34474 0.93783,-4.34475 2.53105,-5 2.53106,-5 h 2.52421 2.52423 l 4.20582,5.66667 4.20583,5.66667 5.21169,10.85525 5.2117,10.85525 4.13345,3.47808 4.13347,3.47808 h 7.18411 7.18412 l 1.28764,-2.40599 1.28766,-2.40597 7.26712,-7.06319 7.26712,-7.06318 3.82548,-2.52206 3.82548,-2.52204 2.79546,-0.009 2.79547,-0.009 4.5382,4.40744 4.53819,4.40744 3.16294,10.53061 3.16295,10.53061 0.67557,5.03679 0.67559,5.03677 -1.74084,4.35851 -1.74083,4.35849 -4.96398,10.73951 -4.96398,10.73949 -2.8007,9.40426 -2.80071,9.40425 v 3.07285 3.07286 l 4.27375,6.78338 4.27374,6.7834 6.53612,7.26414 6.53612,7.26413 -0.68149,6.73587 -0.68149,6.73586 -1.55407,11.33333 -1.55405,11.33334 0.8534,5.75126 0.85341,5.75127 3.62997,4.06265 3.62998,4.06264 14.8218,0.70254 14.82178,0.70252 2.78248,-5.45411 2.78247,-5.45409 9.67137,-5.6298 9.67138,-5.6298 3.66666,-3.34867 3.66667,-3.34865 v -4.45907 -4.45905 l 1.66667,-0.62636 1.66666,-0.62636 6.62166,2.38204 6.62165,2.38202 0.90188,4.40971 0.90188,4.40971 1.47646,1.47646 1.47659,1.47756 v 14.23675 14.23673 l -1.94056,1.61052 -1.94056,1.61054 -13.05944,1.17257 -13.05944,1.17259 -25.33333,2.68125 -25.33333,2.68127 -7.28924,1.98784 -7.28926,1.98785 -3.37741,2.47249 -3.37743,2.4725 -2.23593,4.38333 -2.23593,4.38333 0.71192,1.85522 0.71192,1.85522 4.85734,-0.0307 4.85735,-0.0307 34,-2.64229 34,-2.6423 21.33333,-2.00252 21.33333,-2.00252 26.66667,-2.02913 26.66667,-2.02915 18.1079,-1.98978 18.10792,-1.98979 11.2254,-1.88681 11.2254,-1.8868 17.3334,-2.93379 17.3333,-2.9338 1.6598,-1.30921 1.6598,-1.30922 -0.7849,-6.84244 -0.7848,-6.84244 1.458,-15.46106 1.458,-15.46108 1.8769,-3.87226 1.8768,-3.87226 0.934,-13.66667 0.9341,-13.66666 -12.4772,0.0197 -12.4772,0.0197 -19.3333,1.51839 -19.3333,1.51837 -26.15308,-0.31552 -26.15306,-0.31552 -0.9973,7.11071 -0.9973,7.11069 -0.0543,6 -0.0544,6 1.47531,5.33333 1.4753,5.33334 0.20402,17.79202 0.20402,17.79203 -1.52761,1.52761 -1.52761,1.52762 -22.7118,0.37844 -22.7118,0.37844 0.84346,-1.36475 0.84346,-1.36475 h 5.25465 5.25464 v -36 -35.99999 h -21.85229 -21.85228 l -3.14772,-2.54952 -3.14771,-2.54954 0.14427,-5.7838 0.14427,-5.78381 1.62033,-7.68307 1.62033,-7.68308 3.83586,-1.98358 3.83585,-1.9836 h 20.13274 20.13276 l -0.39988,-7.56879 -0.39986,-7.56879 -16.41104,0.33423 -16.41104,0.33421 -1.92229,-1.59536 -1.9223,-1.59536 v -8.2614 -8.26141 l 2.12106,-7.242 2.12105,-7.242 0.98213,-1.03652 0.98215,-1.03653 12.56346,-1.36364 12.56348,-1.36366 3,-0.62522 3,-0.62523 v -6.55469 -6.55468 l -11.66666,0.70904 -11.66667,0.70902 -2.66667,-2.0265 -2.66666,-2.02651 0.34804,-14.43189 0.34805,-14.43189 0.71224,-2.24406 0.71223,-2.24405 8.93972,-1.97355 8.93972,-1.97356 4.33333,-0.89221 4.33333,-0.89221 v -7.4187 -7.4187 l -11.8669,0.89584 -11.8669,0.89582 -2.30976,-2.30976 -2.30974,-2.30974 0.81694,-10.59398 0.81695,-10.59397 2.17549,-2.40389 2.17548,-2.4039 6.8509,-1.39182 6.85088,-1.39182 16,-2.02962 16,-2.02962 29.33333,-3.9932 29.3334,-3.9932 20,-2.6487 20,-2.64871 20.6666,-2.77775 20.6667,-2.77773 2.5963,-0.99263 2.5962,-0.99262 -0.3061,-25.89654 -0.3061,-25.89651 -1.886,-44.66667 -1.8861,-44.66667 -0.8366,-22 -0.8367,-21.99999 1.3371,-3.50232 1.337,-3.50232 -1.8525,-27.83102 -1.8525,-27.83101 -2.0624,-33.24993 -2.0624,-33.24992 -1.9172,-2.92604 -1.9173,-2.92604 -1.4045,-29.82404 -1.4044,-29.82396 -2.6185,-80.66666 -2.6185,-80.66667 -0.7344,-13.999999 -0.7344,-14 -1.3488,-37.469493 -1.3488,-37.4694945 0.8431,-2.1971718 L 1062.9519,0 h 7.7147 7.7147 l 0.9171,2.3333333 0.9171,2.3333333 0.5761,11.9999994 0.5761,12 1.9938,59.999999 1.9939,59.999995 1.9471,63.33333 1.9472,63.33334 0.8463,24.16341 0.8463,24.16341 -1.5352,2.86854 -1.5351,2.86853 2.1272,40.30138 2.1273,40.30139 1.7558,28.81825 1.7558,28.81826 3.7152,7.84841 3.7152,7.84841 0.3487,1.67301 0.3487,1.67303 -1.0638,-0.65748 -1.0639,-0.65748 -0.6586,3.44548 -0.6587,3.44549 1.7317,35.53898 1.7316,35.53897 0.8019,29.33333 0.8018,29.33333 0.7407,12.02558 0.7408,12.02556 5.5653,-0.39887 5.5653,-0.39887 15.3333,-1.95081 15.3333,-1.95081 12.6295,-1.30826 12.6296,-1.30825 3.7038,3.54848 3.7038,3.54849 -0.01,3.41722 -0.01,3.41721 -2.6235,3.98015 -2.6235,3.98016 0.8003,5.00477 0.8003,5.00479 -1.6891,4.07794 -1.6892,4.07795 -3.8263,1.97865 -3.8263,1.97867 -18.3192,1.94419 -18.3192,1.94418 -1.0697,0.0143 -1.0697,0.0143 0.403,7 0.403,7 6.6667,0.36513 6.6667,0.36515 6.8216,1.35901 6.8216,1.35903 2.6603,2.9425 2.6604,2.94251 1.5181,4.53229 1.518,4.53231 -0.059,6.80103 -0.058,6.80104 -1.8147,5.08826 -1.8147,5.08826 -2.3385,2.58402 -2.3385,2.58403 -4.7883,1.20196 -4.7882,1.20196 -12,0.76256 -12,0.76256 -1,0.0299 -0.9989,0.0299 v 3.08127 3.08126 l 6.7993,1.74262 6.7993,1.74262 4.6895,4.11736 4.6894,4.11736 -0.6331,10.05876 -0.633,10.05875 -2.2425,7.52515 -2.2425,7.52513 -2.9466,0.78999 -2.9465,0.78998 -9.5892,0.0183 -9.5891,0.0181 -1.8667,6.33334 -1.8666,6.33333 1.0629,1.20713 1.063,1.20714 8.819,-2.8951 8.8191,-2.89509 1.2405,0.76665 1.2404,0.76664 v 8.09426 8.09425 l -2.8944,10.82707 -2.8944,10.82705 -1.2257,1.61468 -1.2257,1.61469 -10.8523,0.38531 -10.8522,0.38532 -1.7446,7.33333 -1.7446,7.33334 -0.6282,15.33333 -0.6283,15.33333 -3.246,22 -3.2461,22 -2.0282,19.33333 -2.0282,19.33334 -1.3606,15.33327 -1.3606,15.3334 -2.0343,28 -2.0344,28 -0.8643,27.6666 -0.8643,27.6667 h 108.8787 108.8787 l 0.065,-0.3333 0.065,-0.3334 1.9909,-34.6666 1.991,-34.6667 0.7909,-79.56864 0.791,-79.56867 -0.7188,-1.87294 -0.7187,-1.87295 -9.7072,1.2526 -9.7073,1.25259 -1.8497,-2.47766 -1.8497,-2.47764 0.4288,-11.71613 0.4287,-11.71613 1.9362,-1.19583 1.9363,-1.19582 6.7304,-0.85115 6.7304,-0.85116 2.3334,-0.66007 2.3333,-0.66008 v -1.27468 -1.27468 l -10.3652,0.86443 -10.3651,0.86443 -1.5828,-1.90711 -1.5828,-1.90709 -2.052,-11.76746 -2.0521,-11.76744 v -3.11177 -3.11176 l 2.3333,-1.22787 2.3334,-1.22785 9.4361,-0.93123 9.4361,-0.93122 1.7397,-1.07515 1.7396,-1.07516 -0.8401,-4.47933 -0.8401,-4.47935 -11.1129,0.461 -11.1129,0.46101 -3.5606,-3.12768 -3.5607,-3.12766 -1.3288,-7.18199 -1.3288,-7.18199 v -5.69949 -5.69948 l 3.9662,-3.33728 3.9661,-3.33728 4.3672,-1.36035 4.3672,-1.36033 7.6667,-1.51544 7.6666,-1.51544 v -3.76281 -3.76282 l -2.109,-0.80932 -2.1091,-0.80932 h -15.0765 -15.0766 l -3.1477,-2.55097 -3.1477,-2.55096 v -16.71709 -16.71708 l 1.5032,-1.50187 1.5033,-1.50186 16.4967,-2.42795 16.4968,-2.42795 26.6666,-3.49149 26.6667,-3.49149 8.2013,-1.31942 8.2015,-1.31942 2.1319,0.81809 2.132,0.81811 v 49.85734 49.85735 h -1.3447 -1.3445 l 1.6036,2.56788 1.6036,2.56786 -1.5638,3.43214 -1.5637,3.43212 h 1.3047 1.3048 v 35.91014 35.91015 l -2.973,0.9436 -2.973,0.94358 -13.3603,0.81294 -13.3605,0.81293 0.4885,26.66667 0.4885,26.66666 0.5273,0.57134 0.5273,0.57133 8.9842,-2.82684 8.9842,-2.82684 3.3334,-0.9528 3.3333,-0.9528 3,-0.34095 3,-0.34096 v 34.40662 34.40653 l -2.3333,1.0009 -2.3334,1.0009 -2,0.247 -2,0.2471 -11,0.228 -11,0.2281 v 9.9746 9.9746 l 3.4772,0.8727 3.4774,0.8728 10.5226,-0.7213 10.5228,-0.7212 v 1.2859 1.2859 l 1.3334,-0.824 1.3333,-0.824 v 9.9154 9.9154 l -2.1115,1.7524 -2.1114,1.7523 -14.2219,0.078 -14.2219,0.078 -0.3294,6.6667 -0.3295,6.6667 -1.9333,18.6666 -1.9333,18.6667 -0.8725,9.6667 -0.8726,9.6666 h 17.3596 17.3596 l 2.109,0.8093 2.1091,0.8094 v 117.8573 117.8574 H 682.66665 0 V 682.6667 Z m 894.21496,447.99995 h 24.45168 v -40.5 -40.5 l -3.97288,-0.7945 -3.97286,-0.7946 -30.36047,-0.898 -30.36045,-0.898 -11.66667,0.9789 -11.66666,0.979 -0.0141,9.5469 -0.0141,9.547 -2.64924,17.164 -2.64924,17.164 -3.46225,12.1693 -3.46224,12.1694 -0.7382,3.2181 -0.7382,3.2182 28.41212,-0.8848 28.41212,-0.8849 h 24.45169 z m 158.66394,-1.7816 0.2123,-0.2184 -3.115,-18.418 -3.115,-18.4181 -1.4953,-17.5819 -1.4953,-17.582 -0.5601,-1.6666 -0.5602,-1.6667 -19.7085,-0.1516 -19.7085,-0.1517 -23.66888,-0.8483 -23.6689,-0.8484 0.003,38.7778 0.003,38.7778 1,1.0506 1,1.0507 47.33338,-0.9434 47.3333,-0.9434 0.2123,-0.2184 z m -10.2123,-109.8122 v -11.4411 l -8.3333,0.8088 -8.3333,0.8088 -28.66669,0.7598 -28.66667,0.7598 -7,0.7115 -7,0.7115 v 5.795 5.795 l 0.80932,2.109 0.80932,2.1091 17.52402,0.1675 17.52401,0.1676 19.33329,0.8692 19.3334,0.8693 6.3333,0.2202 6.3333,0.2201 z m -123.99996,0.719 v -6.8749 l -23.66666,0.8525 -23.66667,0.8524 -25.07716,0.8976 -25.07717,0.8977 1.76579,1.7658 1.76577,1.7657 37.97805,3.1876 37.97805,3.1875 9,0.1715 9,0.1714 z M 1008,826.57158 l 35.3333,-1.46151 15.2497,-0.88838 15.2496,-0.88838 1.6945,-6.65586 1.6945,-6.65587 -0.9442,-0.75445 -0.9441,-0.75444 -28.6667,0.998 -28.6666,0.99798 -33.00002,0.89555 -33,0.89555 v 7.8501 7.85011 l 10.33333,0.0165 10.33333,0.0165 L 1008,826.57154 Z m -52.56944,-55.59201 1.43059,-0.97959 0.86091,-2.33333 0.86089,-2.33334 h 2.97519 2.97517 l -1.57305,-1.57305 -1.57307,-1.57307 -3.31481,1.77404 -3.31483,1.77404 -2.04545,-1.69757 -2.04546,-1.69757 v 3.94104 3.94104 l 0.8889,0.88888 0.88888,0.88889 0.77778,-0.0204 0.77778,-0.0204 1.43058,-0.97957 z m 73.30324,-4.31292 h 11.1825 l -0.7506,-2.33334 -0.7506,-2.33333 1.1258,1.43017 1.1257,1.43018 5.0245,-0.0301 5.0244,-0.0301 -2.0245,-1.13293 -2.0244,-1.13294 -2.0622,-3.98784 -2.0622,-3.98784 -15.8716,0.60122 -15.8717,0.60121 -1.4904,0.92109 -1.4903,0.9211 0.6993,1.82244 0.6993,1.82242 -1.2968,0.8015 -1.2969,0.8015 0.8007,1.29544 0.8006,1.29543 2.5545,-0.81075 2.5544,-0.81076 v 2.23251 2.23251 l 2.1091,-0.80932 2.109,-0.80932 h 11.1824 z m 24.5995,-3.33334 v -0.66666 H 1052.6666 1052 v 0.66666 0.66667 h 0.6666 0.6667 z m 10,-6 0.824,-1.33333 h -0.6666 -0.6667 l -0.824,1.33333 -0.8241,1.33334 h 0.6667 0.6667 z m -106.42318,-42.64846 1.57682,-0.0181 0.8767,-2.76222 0.8767,-2.76222 -2.45352,-2.87026 -2.45351,-2.87026 5.08323,3.76381 5.08322,3.76381 2.3551,-2.13133 2.35509,-2.13133 h 1.71712 1.71711 l -0.6372,3.33333 -0.63722,3.33333 5.48178,-0.0204 5.48177,-0.0204 2,-1.26526 2,-1.26527 -4.33175,-1.51087 -4.33176,-1.51085 0.6501,-1.05187 0.65009,-1.05186 -2.82779,-0.73948 -2.82777,-0.73948 0.71795,-2.74544 0.71794,-2.74544 h -3.12981 -3.12983 l -0.86357,1.3973 -0.86359,1.3973 -5.86469,-0.87947 -5.86469,-0.87947 -3.35042,0.84091 -3.35041,0.84089 v 7.46344 7.46344 l 3,-0.80396 3,-0.80397 1.57681,-0.0183 z m 84.00068,-10.93487 -0.7003,-1.75 -0.1052,2.55556 -0.1052,2.55555 0.8056,-0.80555 0.8055,-0.80556 -0.7003,-1.75 z m 16.8989,-0.40174 0.7618,-1.9851 3.1939,1.21431 3.1938,1.21431 -0.1463,-2.8959 -0.1463,-2.89588 -1.6666,0.13334 -1.6667,0.13333 -3.3333,0.2 -3.3334,0.2 v 3.33333 3.33334 h 1.1907 1.1907 z M 1096,701.99998 v -0.66666 h -0.6667 -0.6667 v 0.66666 0.66667 h 0.6667 0.6667 z m -104.44446,-4.22222 -0.8889,-0.88888 -0.88889,0.88888 -0.88888,0.88889 h 1.77777 1.77778 z m -32.8889,238.22222 v -1.33334 h 2 2 v 1.33334 1.33333 h -2 -2 z M 905.9279,902.55 l -0.82416,-1.3335 1.5992,-1.92691 1.59918,-1.92692 1.18227,0.73068 1.18225,0.73067 v 1.77866 1.77866 l -1.95729,0.75109 -1.95731,0.75108 z m -295.06082,-71.55002 -1.22673,-2.33333 -0.91104,-7.33334 -0.91103,-7.33333 -1.9912,-6.25773 -1.99119,-6.25775 -4.91796,-0.40892 -4.91794,-0.40893 0.10253,-2.96948 0.10253,-2.9695 -6.10258,-1.9929 -6.10259,-1.99291 -5.66667,-0.87468 -5.66666,-0.87469 v 5.42505 5.42507 l -1.06086,0.65564 -1.06085,0.65564 -112.21388,0.61289 -112.21386,0.61289 -2.29891,-1.681 -2.29889,-1.681 2.57362,-1.34922 2.57363,-1.34922 27.33333,-1.50001 27.33334,-1.5 12.66666,-0.66683 12.66667,-0.66682 51.33333,-0.022 51.33333,-0.022 7.73724,-0.81766 7.73726,-0.81765 5.0729,-10.81979 5.07291,-10.8198 2.94067,-2.61613 2.94066,-2.61615 7.09031,0.2967 7.09031,0.2967 25.79825,4.69996 25.79826,4.69996 2.98038,1.95282 2.98036,1.95281 1.53002,2.85888 1.53003,2.85887 -0.66877,4.98608 -0.66878,4.98608 -6.90732,17.15505 -6.90732,17.15504 -1.93776,3 -1.93776,3 h -1.25567 -1.25568 l -1.22674,-2.33333 z m 128.28296,-272.74446 0.77248,-3.07781 2.03757,-4.87659 2.03757,-4.87659 4.62256,-4.62256 4.62255,-4.62256 8.56922,-4.0897 8.56923,-4.08972 h 1.51668 1.51668 l -6.56272,9.66666 -6.56272,9.66667 -3.81125,3.48995 -3.81124,3.48994 -6.11715,3.51006 -6.11714,3.51005 h -1.0274 -1.0274 z m 517.21866,-5.25045 -5.6313,-2.82948 -2.0354,-4.28931 -2.0354,-4.28931 v -8.4694 -8.4694 l 2.5762,-9.00848 2.5762,-9.00848 4.2094,-8.90922 4.2094,-8.90923 2.577,-14.74472 2.577,-14.74472 2.0197,-19.7148 2.0197,-19.71481 -0.661,-1.06943 -0.6609,-1.06942 -17.0547,0.59362 -17.0546,0.59363 -14.4753,-3.57901 -14.4753,-3.57903 -3.8581,1.59805 -3.858,1.59806 v 3.6978 3.69778 l 2.5885,8.47378 2.5884,8.47378 6.1294,23.33334 6.1294,23.33333 2.6219,10.66666 2.6219,10.66667 1.3435,6 1.3434,6 0.21,5.87091 0.2101,5.87092 -3.041,2.46241 -3.0409,2.46243 -7.519,-0.008 -7.5189,-0.008 -4.9843,-1.38424 -4.9844,-1.38424 -1.1735,-2.27499 -1.1735,-2.275 -0.8865,-4.91452 -0.8866,-4.91451 2.8185,-25.82446 2.8184,-25.82445 -5.3328,-19.9277 -5.3328,-19.92769 -4.6977,-18.66667 -4.6977,-18.66666 -3.492,-10.62482 -3.4919,-10.62481 2.3366,-1.70852 2.3365,-1.70852 h 3.6221 3.6221 l 6.4757,3.35969 6.4757,3.35968 15.9807,3.95392 15.9807,3.95394 10.6667,1.47749 10.6666,1.47749 22.619,0.39904 22.6189,0.39906 0.4489,1.34674 0.449,1.34676 -3.3396,15.12976 -3.3396,15.12976 -2.1185,11.33334 -2.1184,11.33333 -1.1937,27.94808 -1.1938,27.94806 1.3733,11.22716 1.3733,11.22715 -0.456,12.46035 -0.4561,12.46036 -4.3333,3.95592 -4.3334,3.95593 v 1.19447 1.19448 l -3.396,1.54734 -3.3961,1.54736 -0.9373,-0.0827 -0.9372,-0.0827 -5.6313,-2.82949 z M 546.66665,537.99999 v -0.66667 h 0.66667 0.66667 v 0.66667 0.66666 h -0.66667 -0.66667 z m -39.32389,-20.6514 -0.81461,-1.31806 2.06925,0.79404 2.06925,0.79406 v 0.52401 0.52401 h -1.25464 -1.25465 z m 626.63994,-4.63894 -7.6714,-5.957 -2.092,-3.043 -2.0921,-3.043 1.9364,1.43616 1.9364,1.43616 9.6666,7.08051 9.6667,7.08049 v 0.48335 0.48333 h -1.8396 -1.8395 z m -636.64938,-2.70966 v -0.66667 h 0.66667 0.66666 v 0.66667 0.66666 h -0.66666 -0.66667 z m -7.35716,-4.20507 -5.30951,-3.5384 -7.33333,-6.08379 -7.33333,-6.0838 -2.66667,-2.79384 -2.66666,-2.79384 -2,-2.56832 -2,-2.56832 2.8225,1.98435 2.82251,1.98436 11.71818,10 11.7182,10 3.4593,2.95787 3.4593,2.95786 -0.69049,0.0421 -0.69048,0.0421 z m 152.90101,0.87173 v -3.33333 l 0.67252,1.66667 0.67252,1.66666 -0.67252,1.66667 -0.67252,1.66667 z m 1.12281,-6 v -2 h 0.52402 0.52401 l 0.76748,2 0.76747,2 h -1.29148 -1.2915 z m 472.23242,-2.41926 -2.8991,-3.08594 v -0.96097 -0.96099 l 2.6361,1.4108 2.6361,1.41082 1.4108,2.6361 1.4108,2.63611 h -1.1478 -1.1478 z m -458.46004,-4.61451 -1.56095,-0.99293 -0.91461,-3.64411 -0.91462,-3.64409 -1.16354,0.71912 -1.16355,0.7191 -2.69421,-1.4419 -2.69423,-1.44191 v 2.71359 2.71357 h -1.24951 -1.2495 l 0.57702,-4.33333 0.57703,-4.33334 2.13773,-26.66666 2.13774,-26.66667 0.86808,-7.98272 0.86808,-7.98272 2.2001,-0.42272 2.20012,-0.42272 0.76228,13.73878 0.7623,13.73877 0.71153,25.33333 0.71155,25.33333 0.8149,3 0.8149,3 -0.48884,-0.0204 -0.48884,-0.0204 -1.56096,-0.99293 z m -0.43904,-10.29956 v -0.66667 h -0.66667 -0.66667 v 0.66667 0.66667 h 0.66667 0.66667 z m -3.11111,-2.88889 -0.88889,-0.88888 v 1.77777 1.77777 l 0.88889,-0.88888 0.88888,-0.88889 z m 158.55672,2.86153 -0.84348,-3.36069 1.4125,-2.63931 1.41252,-2.6393 1.61975,0.0204 1.61976,0.0204 -1.68931,1.07225 -1.6893,1.07227 0.62829,4.90731 0.62829,4.90732 h -1.12777 -1.12777 l -0.84348,-3.36069 z m 5.30677,-3.69681 0.91039,-2.39084 0.74638,0.7464 0.7464,0.74638 -1.65677,1.64446 -1.65677,1.64444 z m -369.05959,-10.68108 -4.35945,-4.79747 -3.74359,-6.73197 -3.74357,-6.73197 h 0.64417 0.64417 l 8.15964,10.82865 8.15964,10.82867 -0.70078,0.70077 -0.70078,0.70079 z m 377.90047,1.07192 0.0495,-4 0.61465,2.35871 0.61465,2.3587 -0.66405,1.6413 -0.66407,1.64129 0.0495,-4 z m 46.24828,-0.37523 -0.72533,-4.37522 1.22145,1.22145 1.22144,1.22144 -0.49611,3.15377 -0.49612,3.15379 z m 57.15845,-3.07458 -2.33333,-4.09963 v -2.03965 -2.03967 l -2.46095,3.03915 -2.46095,3.03914 -4.87238,-3.71636 -4.87239,-3.71634 v -1.51722 -1.51721 l 1.34876,-4.65787 1.34877,-4.65786 1.25994,-8 1.25993,-8 3.50028,-39.0654 3.50028,-39.0654 -1.60557,-1.9346 -1.60558,-1.9346 h -1.54514 -1.54515 l -7.51144,7.66666 -7.51144,7.66667 -8.51125,11.33333 -8.51124,11.33334 -5.11225,6.66666 -5.11224,6.66667 -4.08782,8.28935 -4.08781,8.28934 1.64636,15.71066 1.64635,15.71065 0.71425,8 0.71424,8 -1.87179,-3.33333 -1.87178,-3.33334 -1.55766,0.33334 -1.55766,0.33333 v -2.4 -2.4 l -1.66667,-1.68976 -1.66667,-1.68976 2.33334,-1.72389 2.33333,-1.72391 v -1.02896 -1.02896 l -2.9922,-4.82405 -2.9922,-4.82404 -0.0733,-0.66667 -0.0733,-0.66667 -1.0243,-3 -1.02432,-3 h -2.43227 -2.43227 l -0.81432,3.24448 -0.8143,3.24447 -3.49431,-0.63363 -3.49431,-0.63364 0.7889,2.05583 0.78889,2.05583 -2.62481,0.2 -2.62483,0.2 -1.66667,0.13333 -1.66666,0.13333 v -2 -2 l 1.66666,0.33334 1.66667,0.33333 v -3.46084 -3.46084 l 2.64951,-3.72088 2.6495,-3.72089 4.7849,-0.89766 4.7849,-0.89765 1.74322,1.44675 1.74321,1.44674 0.78053,-2.03404 0.78054,-2.03402 h -2.62482 -2.62482 v -1.51968 -1.51967 l -1.96374,-1.48033 -1.96373,-1.48032 7.84363,-11.6983 7.84362,-11.69829 10.45344,-12.81071 10.45344,-12.81069 6,-8.24237 6,-8.24236 4.99517,-5.91531 4.99518,-5.9153 1.00482,1.47726 1.00483,1.47728 9.87243,5.57168 9.87242,5.57168 2.73756,-0.38229 2.73756,-0.38228 -0.34248,12 -0.34248,12 -1.22014,14 -1.22015,14 -0.25344,32.34109 -0.25343,32.34111 -1.79392,1.48882 -1.79393,1.48883 v 1.24876 1.24876 l 1.33333,-0.82404 1.33334,-0.82404 v 2.74535 2.74536 l -1,-0.008 -1,-0.008 -2.33334,-4.09962 z m -6.63172,-9.4518 1.56827,-1.56827 -1.46487,-1.76507 -1.46487,-1.76505 h -1.67006 -1.67008 v 3.33333 3.33334 h 1.56666 1.56667 z m 56.0378,-43.69667 -4.92725,-0.95829 -4.70684,-3.22171 -4.70684,-3.22172 -3.64276,-6.66667 -3.64275,-6.66666 -0.53821,-12.08971 -0.5382,-12.08972 2.24362,-2.24361 2.24363,-2.24363 h 2.40816 2.40817 l 1.60771,-1.93717 1.60772,-1.93718 -2.78044,-15.06282 -2.78043,-15.06283 -3.4397,-18 -3.43972,-18 -3.8662,-18.66666 -3.86622,-18.66667 -4.07429,-21.33333 -4.07429,-21.33334 -4.61714,-26.14042 -4.61714,-26.14044 V 158.85957 156 h 1.05161 1.05163 l 4.17416,7 4.17416,7 4.66058,16 4.66059,16 3.51701,15.33333 3.51702,15.33333 1.86702,8 1.86703,8 2.80023,12.66667 2.80021,12.66666 2.62495,11.33334 2.62494,11.33333 3.90908,17.33333 3.90908,17.33334 2.68778,9.99999 2.68777,10 3.95904,16.66667 3.95904,16.66667 2.2284,10.66666 2.22841,10.66667 0.666,4.33333 0.66598,4.33334 -7.81251,-0.15334 -7.81255,-0.15333 z m -128.40608,-44.81664 -1.33333,-0.53772 -35.16999,-4.05005 -35.16998,-4.05004 -1.16335,-0.71899 -1.16335,-0.71899 v -1.66028 -1.66026 l 3.90106,-5.92771 3.90105,-5.92771 11.09895,-16.30446 11.09894,-16.30448 7.33334,-8.94041 7.33333,-8.94042 7.13328,-7.8885 7.13328,-7.8885 -1.13328,-1.07549 -1.13328,-1.07548 -19.06529,-2.85803 -19.06528,-2.85802 -1.84155,-0.70667 -1.84155,-0.70667 -1.41224,-4.05114 -1.41222,-4.05115 0.84326,-3.35985 0.84327,-3.35987 10.80913,0.78752 10.80914,0.78751 16,2.65452 16,2.65453 6.2732,0.88491 6.2732,0.8849 1.97625,1.5243 1.97625,1.52429 0.89735,4.99149 0.89733,4.99151 -3.81346,3.23423 -3.81346,3.23422 -6.66666,5.60435 -6.66667,5.60433 -12.14339,14.7338 -12.14338,14.73379 -6.31227,10.36555 -6.31227,10.36554 0.79598,1.28791 0.79597,1.28792 4.99301,0.82204 4.99302,0.82205 21.09652,2.45716 21.09653,2.45716 1.37017,1.37017 1.37018,1.37018 -2.17062,7.46662 -2.17061,7.46664 -2.29608,-0.10533 -2.29609,-0.1052 -1.33334,-0.53773 z m -97.33333,-10.80323 -6.66666,-0.40416 -19.11819,-1.43345 -19.11819,-1.43344 -3.37733,-1.28407 -3.37732,-1.28405 -1.73423,1.43928 -1.73422,1.43928 -6.42051,-0.41063 -6.42049,-0.41061 -2.84152,-13.75842 -2.84152,-13.75843 -1.2451,-1.24509 -1.24509,-1.2451 -9.92981,-1.28864 -9.92982,-1.28865 -4.88105,-0.0412 -4.88107,-0.0412 -2.65133,5.66667 -2.65135,5.66666 -1.61766,7.33334 -1.61766,7.33333 -1.80636,2.88657 -1.80634,2.88657 -2.66658,-0.69733 -2.66657,-0.69732 -1.43013,-1.7232 -1.43012,-1.7232 2.71977,-10.38382 2.71979,-10.38383 v -3.17371 -3.1737 l 6.14661,-18.90851 6.14661,-18.90852 3.0392,-8.66667 3.0392,-8.66666 5.96283,-13.33334 5.96281,-13.33333 1.6918,-5.33333 1.6918,-5.33334 1.32283,-1.66666 1.32283,-1.66667 h 3.63777 3.63777 l 4.207,1.46657 4.20702,1.46656 0.58777,2.86678 0.58779,2.86676 0.80741,14 0.80743,14 1.88028,19.33333 1.88029,19.33333 3.44791,21.33334 3.4479,21.33333 0.69176,2.33333 0.69175,2.33333 h 1.16069 1.16071 l 5.43961,-10.86799 5.4396,-10.868 16.562,-24.9482 16.56199,-24.94822 4.78821,-8.86812 4.7882,-8.8681 -3.51624,-1.33688 -3.51625,-1.33687 -13.52411,-1.45911 -13.52412,-1.45909 -2.31758,-1.22485 -2.3176,-1.22487 -0.84951,-3.38473 -0.84951,-3.38472 1.23595,-4.24346 1.23596,-4.24345 3.26448,0.17191 3.26448,0.17192 14.66667,2.18382 14.66666,2.18382 12.16236,2.61226 12.16236,2.61226 3.50431,1.33234 3.5043,1.33234 v 2.38922 2.38924 l -5.72729,6.64378 -5.72731,6.64376 -10.22428,13.04414 -10.22429,13.04415 -10.52045,16.95585 -10.52047,16.95586 -2.1595,4.19921 -2.15951,4.19921 1.63156,1.31816 1.63155,1.31816 7.33333,0.93072 7.33333,0.93072 10,2.00444 10,2.00445 1.50599,1.24403 1.50597,1.24403 0.79525,3.63677 0.79526,3.63676 0.85428,3 0.85426,3 -5.82217,-0.24033 -5.82217,-0.24034 -6.66667,-0.40414 z m -78.92128,-59.78185 -0.2546,-8 -1.54424,-10.13517 -1.54422,-10.13517 -1.14564,-1.85368 -1.14564,-1.85368 -1.17268,1.32218 -1.1727,1.32219 -7.1401,17.76231 -7.14012,17.7623 1.92394,1.24726 1.92395,1.24725 9.33333,-0.34289 9.33334,-0.3429 z m -107.07871,43.87304 -4.66667,-0.54845 -8.61225,-2.21919 -8.61226,-2.2192 -7.72108,-7.50852 -7.72108,-7.50852 v -5.03714 -5.03715 l 4.04254,-4.04252 4.04252,-4.04253 3.62414,0.72488 3.62414,0.72488 9.68618,3.45877 9.68619,3.45879 17.59432,-0.37191 17.59432,-0.37189 2.34649,-7.71367 2.34648,-7.71368 2.37302,-15.61965 2.373,-15.61967 -0.0808,-58.33333 L 609.83839,148 h 8.97851 8.97851 l 4.28548,3.606 4.28549,3.606 -0.8053,12.06066 -0.80532,12.06067 -2.75712,21.33333 -2.75714,21.33333 -3.24678,20 -3.24679,20 -1.32704,10.66667 -1.32704,10.66667 -2.66528,12.05934 -2.66529,12.05936 -2.62888,7.94064 -2.62888,7.94066 -2.14593,6 -2.14592,6 -2.2735,2.99232 -2.27349,2.99232 -14,0.55175 -14,0.55176 -4.66667,-0.54845 z m 353.33332,-21.79434 v -1.25466 l 1.46128,-0.90312 1.46128,-0.90312 2.15777,2.15778 2.15776,2.15776 h -3.61904 -3.61905 z"
         id="path263" />
      <path
         style="fill:#1d1a18;stroke-width:1.33333"
         d="M 0,682.66665 V 0 h 133.27799 133.27799 l 0.43015,191 0.43014,190.99999 0.41668,372.66666 0.41668,372.66665 0.87519,6.6294 0.87517,6.6294 61.33334,-0.314 61.33333,-0.3141 30.26314,-0.8375 30.26315,-0.8376 0.45116,-1.4778 0.45117,-1.4778 -0.90764,-32.6667 L 452.28,1070 l -0.14,-55.6127 -0.14001,-55.61274 -3.19347,-3.05396 -3.19346,-3.05396 -9.03726,-14 -9.03726,-14 -4.20904,-5.33333 -4.20904,-5.33333 -3.621,-7.09166 -3.62099,-7.09166 0.77159,-2.43104 0.77158,-2.43106 2.95584,-0.794 2.95584,-0.79398 10.79896,1.49062 10.79896,1.49063 6.53438,-1.97701 6.53437,-1.97703 6.30195,-0.24821 6.30194,-0.2482 3.0423,1.99337 3.04228,1.99339 10.65577,-0.0717 10.65576,-0.0717 6.55064,0.1332 6.55064,0.1332 4.55072,-2.68499 4.5507,-2.68498 -3.03272,4.34816 -3.03272,4.34817 -10.06864,11.80015 -10.06862,11.80016 -8.49999,10.19984 -8.5,10.19985 -5.37633,7.22687 -5.37633,7.22686 1.03074,75.43987 1.03074,75.4398 0.84558,14.6666 0.84559,14.6667 70.45696,-0.4915 70.45694,-0.4916 36.20972,-0.8418 36.20971,-0.8419 0.4068,-4.8822 0.40678,-4.8822 -4.19889,-14.414 -4.19891,-14.4141 -1.39986,-13.3229 -1.39987,-13.323 1.55649,-16.0475 1.55651,-16.0474 3.24055,-16.2496 3.24054,-16.2496 2.1587,-7.75044 2.15868,-7.75041 7.42908,-22.66667 7.42908,-22.66667 5.94262,-14.66666 5.94263,-14.66667 2.42343,-2.66667 2.42344,-2.66666 6.93426,-14.66667 6.93428,-14.66666 4.4856,-10.40191 4.48562,-10.40191 -11.2797,-22.93142 -11.27969,-22.93143 -1.42421,-10 -1.42423,-10 -1.36095,-16.66667 -1.36096,-16.66666 0.14656,-4.6111 0.14656,-4.61109 2.45511,-5.55017 2.45511,-5.55017 1.40149,-0.86618 1.40148,-0.86616 4.18195,6.07824 4.18194,6.07824 4.4066,9.66967 4.40662,9.66968 4.8741,4.27952 4.87411,4.27952 4.28695,0.20106 4.28693,0.20107 3.90188,-0.31785 3.90188,-0.31787 8.96861,-9.60351 8.96861,-9.6035 4.62634,-2.49143 4.62632,-2.49144 4.0885,2.91128 4.08852,2.91127 3.45207,10.96713 3.45205,10.96712 0.77999,4.87677 0.77997,4.87676 -6.97369,15.72006 -6.97368,15.72005 -3.25149,11.21551 -3.25148,11.2155 4.4078,7.31324 4.4078,7.31324 7.10012,8.20776 7.10012,8.20778 -0.59622,4.66666 -0.59621,4.66667 -1.69813,14.089 -1.69814,14.08898 0.91395,4.87176 0.91395,4.87176 3.32392,3.95024 3.3239,3.95026 4.28971,1.35369 4.28969,1.35368 11.33334,0.20209 11.33333,0.2021 2.13084,-0.13346 2.13083,-0.13344 2.44242,-5.41632 2.44243,-5.41633 9.42673,-5.48179 9.42675,-5.48178 4.33333,-4.03011 4.33334,-4.03011 0.0204,-3.40512 0.0204,-3.4051 1.16506,-1.83947 1.16507,-1.83948 5.81452,1.83948 5.8145,1.83947 0.36702,20.96614 0.36702,20.96614 -3.03369,0.61602 -3.03368,0.61603 -9.33333,0.74179 -9.33333,0.7418 -24.84222,2.6215 -24.84222,2.62151 -9.15778,2.27629 -9.15778,2.2763 -5,4.9547 -5,4.95472 v 4.19871 4.19871 l 1.80616,0.69309 1.80616,0.69308 35.8605,-2.7642 35.86051,-2.76421 20.66667,-1.92863 20.66666,-1.92864 19.33333,-1.41543 19.33334,-1.41544 22,-2.05317 22,-2.05319 17.33336,-2.5614 17.3333,-2.5614 14.6667,-2.66101 14.6666,-2.66101 3.588,-0.0177 3.588,-0.0177 1.0286,-1.66429 1.0286,-1.66428 2.252,-28.66906 2.2521,-28.66903 0.9787,-11.63327 0.9787,-11.63328 -58.766,-0.0377 -58.76598,-0.0377 -0.88887,1.43822 -0.88887,1.43822 0.41695,22.8994 0.41695,22.8994 0.0572,14 0.0572,14 h -14.66667 -14.66667 l -0.35409,-37.66667 -0.35411,-37.66666 h -22.06688 -22.06689 l -2.57901,-1.38024 -2.57901,-1.38025 v -5.88746 -5.88746 l 1.42038,-6.62306 1.42039,-6.62304 2.24628,-0.98952 2.24628,-0.98952 21.33333,-0.7864 21.33333,-0.78638 0.4021,-8.53124 0.40209,-8.53124 -1.47027,-1.46876 -1.47026,-1.46876 h -16.93183 -16.93182 l -0.43535,-6 -0.43533,-6 1.61442,-7.65204 1.61443,-7.65203 1.68741,-1.40043 1.6874,-1.40042 12.46684,-1.30803 12.46684,-1.30804 3.06,-0.67996 3.06,-0.67997 -0.39333,-8.95955 -0.39334,-8.95953 -12,0.3468 -12,0.3468 -2,-1.29966 -2,-1.29965 0.37627,-13.62893 0.37628,-13.62893 1.274,-1.53508 1.274,-1.53508 9.68307,-1.72054 9.68305,-1.72054 3,-1.12959 3,-1.1296 v -9.36633 -9.36634 h -13.19068 -13.19068 l -0.82981,-2.16244 -0.8298,-2.16245 0.88114,-8.6006 0.88116,-8.6006 2.81056,-1.84155 2.81056,-1.84154 15.99544,-2.07943 15.99544,-2.07943 15.33334,-2.01113 15.33333,-2.01113 8.66667,-1.35092 8.66666,-1.35094 15.33334,-1.85324 15.33332,-1.85324 25.9121,-3.46945 25.9121,-3.46944 12.5667,-1.88784 12.5668,-1.88784 0.8222,-0.82223 0.8222,-0.82222 -0.3595,-35.58784 -0.3595,-35.58783 -1.2609,-20 -1.2608,-20 -1.3895,-38.66666 -1.3896,-38.66667 -0.6307,-10.66666 -0.6308,-10.66667 -1.2959,-20 -1.2959,-20 -1.4047,-25.33333 -1.4046,-25.33334 -1.2588,-11.33333 -1.2588,-11.33333 -1.9803,-48.66667 -1.9803,-48.66666 -1.4224,-46 -1.4224,-46 -1.9411,-50.666665 -1.9412,-50.666666 -0.8405,-18.333333 L 1063.7,-1.0666666e-4 h 6.6922 6.6921 l 0.7424,12.33333266666 0.7424,12.333333 1.422,43.999999 1.422,44.000002 2.5761,84 2.5761,83.99999 0.7596,23.33334 0.7596,23.33333 2.015,41.33333 2.015,41.33333 2.6243,42.66667 2.6243,42.66666 0.6524,11.33334 0.6523,11.33333 1.3117,27.33333 1.3118,27.33334 0.702,27.33333 0.7021,27.33333 0.7917,10.34083 0.7916,10.34081 0.9711,0.60015 0.971,0.60016 11.2229,-1.21376 11.2228,-1.21375 23.2729,-2.68691 23.2729,-2.6869 2.3938,2.16633 2.3937,2.16635 v 3.91637 3.91637 l -2.5821,3.2826 -2.582,3.28262 0.07,5.05773 0.07,5.05775 -0.9156,2.88458 -0.9155,2.88458 -3.692,1.90921 -3.692,1.90921 -19.0477,2.101 -19.0476,2.10099 -1.1659,0.72053 -1.1658,0.72052 0.02,7.58799 0.02,7.58797 1.183,1.86858 1.1831,1.86856 11.7094,0.38828 11.7094,0.38828 3.4205,2.53717 3.4204,2.53716 1.7834,5.20599 1.7835,5.20598 -0.7665,7.70011 -0.7665,7.70011 -2.0308,3.92704 -2.0307,3.92702 -2.9589,1.58358 -2.959,1.58356 -15.1071,0.93582 -15.1071,0.93583 -1.3744,1.37435 -1.3743,1.37434 -0.2125,4.31323 -0.2124,4.31322 8.3994,2.32887 8.3994,2.32887 3.2672,3.06944 3.2673,3.06945 v 6.01572 6.01573 l -2.1504,8.75186 -2.1504,8.75185 -1.2437,1.33333 -1.2437,1.33334 -11.6057,0.66666 -11.6058,0.66667 -1.5049,4.66667 -1.505,4.66666 -0.9347,4.33444 -0.9347,4.33443 2.3111,0.88688 2.3112,0.88688 6.1284,-1.42173 6.1283,-1.42174 3,-0.95508 3,-0.95509 v 5.90439 5.9044 l -2.6935,10.58444 -2.6936,10.58445 -1.2779,3 -1.2778,3 h -9.2833 -9.2832 l -0.736,1.19084 -0.7359,1.19084 -2.0767,13.14249 -2.0766,13.1425 -1.9204,11.33333 -1.9205,11.33333 -3.2799,24 -3.2799,24 -2.7572,29.83748 -2.7573,29.83745 -1.9919,26.8292 -1.9918,26.8292 -0.8622,30.341 -0.8621,30.3411 111.1814,-0.3411 111.1813,-0.341 0.9181,-6 0.9182,-6 1.5719,-31.3333 1.572,-31.3334 0.705,-80.93334 0.705,-80.93337 -3.3886,-0.85047 -3.3885,-0.85046 -7.6163,1.58114 -7.6163,1.58114 -1.139,-1.7973 -1.139,-1.7973 -0.02,-8.42099 -0.02,-8.42098 1.3286,-2.48248 1.3286,-2.48248 7.6714,-0.93034 7.6714,-0.93033 2.4142,-1.25641 2.4143,-1.25642 -0.4143,-2.90978 -0.4141,-2.90968 h -11.2916 -11.2917 l -1.5415,-6.89462 -1.5416,-6.89461 -0.9139,-7.31509 -0.914,-7.31511 3.7472,-0.73651 3.7471,-0.7365 8,-0.88498 8,-0.88496 1.6667,-1.33208 1.6667,-1.33206 v -5.57007 -5.57008 l -1.5882,-1.58819 -1.5882,-1.58818 -10.9521,0.84184 -10.9521,0.84184 -3.3279,-3.32792 -3.328,-3.32794 -0.9557,-10.19954 -0.9558,-10.19955 1.7269,-2.08076 1.7268,-2.08076 4.0972,-2.133 4.0971,-2.13299 8.5634,-1.80682 8.5635,-1.80684 1.7699,-1.46886 1.7698,-1.46885 -0.02,-3.5034 -0.02,-3.50341 -1.2636,-1.99896 -1.2636,-1.99895 -17.3162,-0.66772 -17.3162,-0.66771 -1.7331,-1.7306 -1.7331,-1.73061 -0.3772,-12.93605 -0.3773,-12.93607 1.749,-3.33333 1.749,-3.33333 6.6282,-0.855 6.6283,-0.855 20.6667,-2.87747 20.6666,-2.87748 20,-2.57911 20,-2.57912 5,-0.86286 5,-0.86287 v 46.64781 46.64783 l -18.322,1.65206 -18.322,1.65207 -2.4088,1.28912 -2.4087,1.28913 0.3974,7.58544 0.3975,7.58544 h 8.6666 8.6667 l 11.6667,-1.00777 11.6666,-1.00779 v 15.84851 15.84852 l -14.3333,0.90361 -14.3333,0.90363 -4.3334,0.73737 -4.3333,0.73736 v 1.85162 1.85161 l 3,-0.0239 3,-0.0239 12.6667,-1.95218 12.6666,-1.95217 3,-0.0239 3,-0.0239 v 17.13768 17.13769 l -10.2012,0.8623 -10.2012,0.86232 h -6.3021 -6.3023 l -1.6836,2.02864 -1.6836,2.02866 0.9556,27.63801 0.9556,27.63803 1.0874,1.12264 1.0874,1.12264 15.8107,-5.25363 15.8107,-5.25364 0.357,32.66283 0.3571,32.6628 -0.3616,0.3616 -0.3616,0.3616 -15.9955,1.1066 -15.9955,1.1064 -0.3828,12.2955 -0.3829,12.2955 3.4956,0.8773 3.4956,0.8774 13.2205,-0.6366 13.2207,-0.6367 v 4.9638 4.9638 l -0.8333,4.1667 -0.8334,4.1666 H 1348.1 1332.5333 l -1.6,1.6 -1.6,1.6 -0.015,6.0667 -0.015,6.0667 -2.6361,25.3333 -2.6362,25.3333 -0.015,5 -0.015,5 h 20.6666 20.6667 V 1248 1365.3333 H 682.66665 0 Z m 920.33331,449.76875 1,-0.5928 v -41.8744 -41.8744 l -2.69341,-1.4415 -2.69342,-1.4414 -43.00681,-0.8128 -43.0068,-0.8128 -2.96645,1.5876 -2.96644,1.5876 -0.009,8.953 -0.009,8.9531 -2.65476,17.7654 -2.65474,17.7655 -2.77095,10.8527 -2.77095,10.8527 -1.94069,4.6447 -1.94068,4.6447 0.72652,1.8933 0.72652,1.8933 54.31527,-0.9753 54.31526,-0.9753 1,-0.5929 z m 135.43119,-1.0889 0.5412,-0.5411 -3.415,-20.4027 -3.415,-20.4027 -1.5914,-18 -1.5914,-18 -1.1429,-1.4657 -1.1429,-1.4657 -38.3369,-1.1007 -38.33689,-1.1007 -6.66667,-0.1002 -6.66666,-0.1003 -0.35295,41.2425 -0.35296,41.2425 1.68629,1.1896 1.68628,1.1896 49.27836,-0.8216 49.2784,-0.8216 0.5411,-0.5411 z m -9.9545,-106.2088 0.8566,-8.1956 v -4.9745 -4.9744 l -1.6666,-1.2927 -1.6667,-1.2926 -26,1.171 -25.99999,1.1709 -19.33333,0.9584 -19.33334,0.9584 -0.38978,10.3536 -0.38978,10.3535 2.06042,0.7906 2.06042,0.7907 29.6627,0.976 29.66268,0.976 14.8101,0.2131 14.81,0.2132 z M 920.66664,1020 v -8.6667 l -35.99999,0.4776 -36,0.4776 -17.33334,0.8557 -17.33333,0.8558 0.16099,1.3098 0.16097,1.3099 5.57195,3.0992 5.57193,3.0993 22.93375,1.9261 22.93374,1.9261 14,1.1707 14,1.1706 10.66667,-0.1725 10.66666,-0.1726 z m 68,-189.98786 22.66666,-0.73744 31.3333,-1.43127 31.3334,-1.43126 1.4876,-1.22074 1.4875,-1.22072 1.7094,-8.05505 1.7094,-8.05505 -1.197,-1.09716 -1.1969,-1.09716 -62.6667,1.8888 -62.66666,1.8888 -1.66666,0.56953 -1.66667,0.56953 v 9.10852 9.10851 l 1.65567,1.65567 1.65566,1.65566 6.67767,-0.68086 6.67767,-0.68087 z m 0.66667,-57.28359 27.33329,-1.93596 36,-2.2643 36,-2.2643 1.6667,-1.29526 1.6667,-1.29527 v -7.37787 -7.37785 l -25.6667,0.83391 -25.6667,0.83391 -45.83454,2.06563 -45.83459,2.06564 -1.16541,0.72027 -1.16542,0.72025 v 8.32132 8.32131 l 1.66667,1.67501 1.66667,1.67503 6,-0.74276 6,-0.74275 z m 4.86371,-57.35417 35.80298,-3.29226 33.8901,-2.65731 33.8902,-2.65732 1.0902,-1.71708 1.0902,-1.71709 -0.7546,-6.66667 -0.7545,-6.66667 -0.5947,-1.86842 -0.5948,-1.86844 -15.631,0.7961 -15.6311,0.7961 -50,4.08622 -50.00002,4.08622 -9.33334,0.98612 -9.33333,0.9861 -0.38941,10.33334 -0.38943,10.33333 h 5.9198 5.91979 z m -383.07833,102.98051 -1.41853,-9.68824 -2.11539,-5 -2.11538,-5 h -3.84056 -3.84058 l 0.10587,-2.84904 0.10587,-2.84904 -7.33334,-2.52856 -7.33333,-2.52856 -7.59545,-0.8049 -7.59547,-0.8049 -0.71128,3.1825 -0.71128,3.1825 -0.35993,4.2098 -0.35992,4.20978 -108.76229,0.68247 -108.76231,0.68248 -1.70292,-1.05247 -1.70293,-1.05246 4.46522,-0.76142 4.46523,-0.7614 15.86243,-0.91716 15.86244,-0.91714 8.13756,-0.36552 8.13757,-0.36552 70,-0.97482 70,-0.97481 1.5503,-1.22092 1.5503,-1.22093 4.87293,-10.26099 4.87292,-10.26099 2.11676,-2.339 2.11676,-2.33898 6.12668,0.004 6.12668,0.004 25.84543,4.62622 25.84543,4.62624 3.1334,2.05308 3.1334,2.05308 0.87478,3.48539 0.87477,3.48539 -3.11163,8.83108 -3.11162,8.83108 -4.77176,11.23214 -4.77178,11.23216 -1.36825,0.45608 -1.36825,0.45608 -1.41855,-9.68822 z m 645.25001,-265.34982 -5.6313,-2.82948 -2.0354,-4.28931 -2.0354,-4.28931 v -8.4694 -8.4694 l 2.5762,-9.00848 2.5762,-9.00848 4.2094,-8.90922 4.2094,-8.90923 2.577,-14.74472 2.577,-14.74472 2.0197,-19.7148 2.0197,-19.71481 -0.661,-1.06943 -0.6609,-1.06942 -17.0547,0.59362 -17.0546,0.59363 -14.4753,-3.57901 -14.4753,-3.57903 -3.8581,1.59805 -3.858,1.59806 v 3.6978 3.69778 l 2.5885,8.47378 2.5884,8.47378 6.1294,23.33334 6.1294,23.33333 2.6219,10.66666 2.6219,10.66667 1.3435,6 1.3434,6 0.21,5.87091 0.2101,5.87092 -3.041,2.46241 -3.0409,2.46243 -7.519,-0.008 -7.5189,-0.008 -4.9843,-1.38424 -4.9844,-1.38424 -1.1735,-2.27499 -1.1735,-2.275 -0.8865,-4.91452 -0.8866,-4.91451 2.8185,-25.82446 2.8184,-25.82445 -5.3328,-19.9277 -5.3328,-19.92769 -4.6977,-18.66667 -4.6977,-18.66666 -3.492,-10.62482 -3.4919,-10.62481 2.3366,-1.70852 2.3365,-1.70852 h 3.6221 3.6221 l 6.4757,3.35969 6.4757,3.35968 15.9807,3.95392 15.9807,3.95394 10.6667,1.47749 10.6666,1.47749 22.619,0.39904 22.6189,0.39906 0.4489,1.34674 0.449,1.34676 -3.3396,15.12976 -3.3396,15.12976 -2.1185,11.33334 -2.1184,11.33333 -1.1937,27.94808 -1.1938,27.94806 1.3733,11.22716 1.3733,11.22715 -0.456,12.46035 -0.4561,12.46036 -4.3333,3.95592 -4.3334,3.95593 v 1.19447 1.19448 l -3.396,1.54734 -3.3961,1.54736 -0.9373,-0.0827 -0.9372,-0.0827 -5.6313,-2.82949 z m -276.62931,-139.60336 -4.92725,-0.95829 -4.70684,-3.22171 -4.70684,-3.22172 -3.64276,-6.66667 -3.64275,-6.66666 -0.53821,-12.08971 -0.5382,-12.08972 2.24362,-2.24361 2.24363,-2.24363 h 2.40816 2.40817 l 1.60771,-1.93717 1.60772,-1.93718 -2.78044,-15.06282 -2.78043,-15.06283 -3.4397,-18 -3.43972,-18 -3.8662,-18.66666 -3.86622,-18.66667 -4.07429,-21.33333 -4.07429,-21.33334 -4.61714,-26.14042 -4.61714,-26.14044 V 158.85957 156 h 1.05161 1.05163 l 4.17416,7 4.17416,7 4.66058,16 4.66059,16 3.51701,15.33333 3.51702,15.33333 1.86702,8 1.86703,8 2.80023,12.66667 2.80021,12.66666 2.62495,11.33334 2.62494,11.33333 3.90908,17.33333 3.90908,17.33334 2.68778,9.99999 2.68777,10 3.95904,16.66667 3.95904,16.66667 2.2284,10.66666 2.22841,10.66667 0.666,4.33333 0.66598,4.33334 -7.81251,-0.15334 -7.81255,-0.15333 z m -128.40608,-44.81664 -1.33333,-0.53772 -35.16999,-4.05005 -35.16998,-4.05004 -1.16335,-0.71899 -1.16335,-0.71899 v -1.66028 -1.66026 l 3.90106,-5.92771 3.90105,-5.92771 11.09895,-16.30446 11.09894,-16.30448 7.33334,-8.94041 7.33333,-8.94042 7.13328,-7.8885 7.13328,-7.8885 -1.13328,-1.07549 -1.13328,-1.07548 -19.06529,-2.85803 -19.06528,-2.85802 -1.84155,-0.70667 -1.84155,-0.70667 -1.41224,-4.05114 -1.41222,-4.05115 0.84326,-3.35985 0.84327,-3.35987 10.80913,0.78752 10.80914,0.78751 16,2.65452 16,2.65453 6.2732,0.88491 6.2732,0.8849 1.97625,1.5243 1.97625,1.52429 0.89735,4.99149 0.89733,4.99151 -3.81346,3.23423 -3.81346,3.23422 -6.66666,5.60435 -6.66667,5.60433 -12.14339,14.7338 -12.14338,14.73379 -6.31227,10.36555 -6.31227,10.36554 0.79598,1.28791 0.79597,1.28792 4.99301,0.82204 4.99302,0.82205 21.09652,2.45716 21.09653,2.45716 1.37017,1.37017 1.37018,1.37018 -2.17062,7.46662 -2.17061,7.46664 -2.29608,-0.10533 -2.29609,-0.1052 -1.33334,-0.53773 z m -97.33333,-10.80323 -6.66666,-0.40416 -19.11819,-1.43345 -19.11819,-1.43344 -3.37733,-1.28407 -3.37732,-1.28405 -1.73423,1.43928 -1.73422,1.43928 -6.42051,-0.41063 -6.42049,-0.41061 -2.84152,-13.75842 -2.84152,-13.75843 -1.2451,-1.24509 -1.24509,-1.2451 -9.92981,-1.28864 -9.92982,-1.28865 -4.88105,-0.0412 -4.88107,-0.0412 -2.65133,5.66667 -2.65135,5.66666 -1.61766,7.33334 -1.61766,7.33333 -1.80636,2.88657 -1.80634,2.88657 -2.66658,-0.69733 -2.66657,-0.69732 -1.43013,-1.7232 -1.43012,-1.7232 2.71977,-10.38382 2.71979,-10.38383 v -3.17371 -3.1737 l 6.14661,-18.90851 6.14661,-18.90852 3.0392,-8.66667 3.0392,-8.66666 5.96283,-13.33334 5.96281,-13.33333 1.6918,-5.33333 1.6918,-5.33334 1.32283,-1.66666 1.32283,-1.66667 h 3.63777 3.63777 l 4.207,1.46657 4.20702,1.46656 0.58777,2.86678 0.58779,2.86676 0.80741,14 0.80743,14 1.88028,19.33333 1.88029,19.33333 3.44791,21.33334 3.4479,21.33333 0.69176,2.33333 0.69175,2.33333 h 1.16069 1.16071 l 5.43961,-10.86799 5.4396,-10.868 16.562,-24.9482 16.56199,-24.94822 4.78821,-8.86812 4.7882,-8.8681 -3.51624,-1.33688 -3.51625,-1.33687 -13.52411,-1.45911 -13.52412,-1.45909 -2.31758,-1.22485 -2.3176,-1.22487 -0.84951,-3.38473 -0.84951,-3.38472 1.23595,-4.24346 1.23596,-4.24345 3.26448,0.17191 3.26448,0.17192 14.66667,2.18382 14.66666,2.18382 12.16236,2.61226 12.16236,2.61226 3.50431,1.33234 3.5043,1.33234 v 2.38922 2.38924 l -5.72729,6.64378 -5.72731,6.64376 -10.22428,13.04414 -10.22429,13.04415 -10.52045,16.95585 -10.52047,16.95586 -2.1595,4.19921 -2.15951,4.19921 1.63156,1.31816 1.63155,1.31816 7.33333,0.93072 7.33333,0.93072 10,2.00444 10,2.00445 1.50599,1.24403 1.50597,1.24403 0.79525,3.63677 0.79526,3.63676 0.85428,3 0.85426,3 -5.82217,-0.24033 -5.82217,-0.24034 -6.66667,-0.40414 z m -78.92128,-59.78185 -0.2546,-8 -1.54424,-10.13517 -1.54422,-10.13517 -1.14564,-1.85368 -1.14564,-1.85368 -1.17268,1.32218 -1.1727,1.32219 -7.1401,17.76231 -7.14012,17.7623 1.92394,1.24726 1.92395,1.24725 9.33333,-0.34289 9.33334,-0.3429 z m -107.07871,43.87304 -4.66667,-0.54845 -8.61225,-2.21919 -8.61226,-2.2192 -7.72108,-7.50852 -7.72108,-7.50852 v -5.03714 -5.03715 l 4.04254,-4.04252 4.04252,-4.04253 3.62414,0.72488 3.62414,0.72488 9.68618,3.45877 9.68619,3.45879 17.59432,-0.37191 17.59432,-0.37189 2.34649,-7.71367 2.34648,-7.71368 2.37302,-15.61965 2.373,-15.61967 -0.0808,-58.33333 L 609.83839,148 h 8.97851 8.97851 l 4.28548,3.606 4.28549,3.606 -0.8053,12.06066 -0.80532,12.06067 -2.75712,21.33333 -2.75714,21.33333 -3.24678,20 -3.24679,20 -1.32704,10.66667 -1.32704,10.66667 -2.66528,12.05934 -2.66529,12.05936 -2.62888,7.94064 -2.62888,7.94066 -2.14593,6 -2.14592,6 -2.2735,2.99232 -2.27349,2.99232 -14,0.55175 -14,0.55176 -4.66667,-0.54845 z"
         id="path261" />
    </g>
  </g>
  <metadata
     id="metadata5778">
    <rdf:RDF>
      <cc:Work
         rdf:about="">
        <dc:creator>
          <cc:Agent>
            <dc:title>scarf</dc:title>
          </cc:Agent>
        </dc:creator>
        <dc:description>original image generated via DALL-E 2. watermark removed with GIMP. vectorized and recolored via inkscape.</dc:description>
        <dc:title>rainy day, a cat, a cafe</dc:title>
        <dc:date>2023-09-27</dc:date>
        <dc:rights>
          <cc:Agent>
            <dc:title>CC-BY-SA 4.0</dc:title>
          </cc:Agent>
        </dc:rights>
        <dc:publisher>
          <cc:Agent>
            <dc:title>scarf</dc:title>
          </cc:Agent>
        </dc:publisher>
        <dc:source>https://labs.openai.com/s/EvYbgrWq0HY6kuow1HhKi6Rm</dc:source>
      </cc:Work>
    </rdf:RDF>
  </metadata>
</svg>
